<?xml version="1.0" standalone="no"?>

<!DOCTYPE svg PUBLIC "-//W3C//DTD SVG 20010904//EN"

 "http://www.w3.org/TR/2001/REC-SVG-20010904/DTD/svg10.dtd">

<svg version="1.0" xmlns="http://www.w3.org/2000/svg"

 width="1024.000000pt" height="1024.000000pt" viewBox="0 0 1024.000000 1024.000000"

 preserveAspectRatio="xMidYMid meet">

<path fill="#120b1e" stroke="none" d="
M306 1023

L306 1022

L300 1021

C282 1017 259 1004 247 989

C242 982 208 936 183 901

C180 897 171 884 163 872

C154 861 140 840 130 827

C120 814 108 797 103 790

C97 782 87 768 80 759

C73 749 63 735 58 729

C11 664 8 659 4 641

C3 636 1 631 1 631

C0 631 0 605 1 605

C1 604 2 601 3 597

C4 594 10 568 17 541

C36 462 58 377 69 333

C75 311 80 289 81 285

C82 280 84 274 85 271

C89 250 98 220 101 213

C108 198 117 187 131 177

C138 171 147 166 179 150

C201 140 218 131 218 131

C219 131 240 121 266 108

C291 95 333 75 357 63

C381 51 416 34 435 25

C471 7 476 5 487 3

L494 2

L494 1

L494 0

L510 0

L526 0

L526 1

L526 2

L529 2

C533 2 546 5 552 7

C555 9 566 14 577 19

C587 24 603 32 612 36

C620 40 644 52 665 62

C704 82 749 104 789 123

C843 149 885 170 889 173

C897 179 903 184 909 191

C921 206 925 214 934 248

C943 287 956 338 963 367

C975 412 996 494 1005 530

C1017 579 1022 598 1023 599

L1024 599

L1024 616

L1024 633

L1023 633

L1021 634

L1021 637

C1021 640 1015 655 1011 663

C1008 668 987 699 965 729

C961 735 952 747 945 756

C939 765 926 783 917 796

C900 819 879 849 838 905

C779 987 780 986 769 996

C757 1009 738 1019 725 1021

C721 1022 717 1023 717 1023

L717 1024

L511 1024

L306 1024

L306 1023

Z

"/>

<path fill="#4b2984" stroke="none" d="
M306 1023

L306 1022

L300 1021

C282 1017 259 1004 247 989

C242 982 208 936 183 901

C180 897 171 884 163 872

C154 861 140 840 130 827

C120 814 108 797 103 790

C97 782 87 768 80 759

C73 749 63 735 58 729

C11 664 8 659 4 641

C3 636 1 631 1 631

C0 631 0 605 1 605

C1 604 2 601 3 597

C4 594 10 568 17 541

C36 462 58 377 69 333

C75 311 80 289 81 285

C82 280 84 274 85 271

C89 250 98 220 101 213

C108 198 117 187 131 177

C138 171 147 166 179 150

C201 140 218 131 218 131

C219 131 240 121 266 108

C291 95 333 75 357 63

C381 51 416 34 435 25

C471 7 476 5 487 3

L494 2

L494 1

L494 0

L510 0

L526 0

L526 1

L526 2

L529 2

C533 2 546 5 552 7

C555 9 566 14 577 19

C587 24 603 32 612 36

C620 40 644 52 665 62

C704 82 749 104 789 123

C843 149 885 170 889 173

C897 179 903 184 909 191

C921 206 925 214 934 248

C943 287 956 338 963 367

C975 412 996 494 1005 530

C1017 579 1022 598 1023 599

L1024 599

L1024 616

L1024 633

L1023 633

L1021 634

L1021 637

C1021 640 1015 655 1011 663

C1008 668 987 699 965 729

C961 735 952 747 945 756

C939 765 926 783 917 796

C900 819 879 849 838 905

C779 987 780 986 769 996

C757 1009 738 1019 725 1021

C721 1022 717 1023 717 1023

L717 1024

L511 1024

L306 1024

L306 1023

Z

M662 902

L663 901

L662 900

C661 900 659 900 658 901

L657 902

L658 903

C658 904 660 904 662 902

Z

"/>

<path fill="#00ff00" stroke="none" d="
M306 1022

L305 1021

L303 1021

L302 1022

L303 1021

L303 1020

L300 1020

L297 1021

L298 1020

L298 1019

L296 1019

L293 1020

L294 1019

L294 1018

L289 1017

C286 1016 283 1015 283 1015

L283 1016

L281 1014

C280 1013 276 1011 273 1009

C266 1005 254 995 249 989

L245 984

L244 985

L243 985

L243 984

L244 983

L239 976

C237 973 233 967 231 965

C230 963 228 960 227 959

C226 957 221 951 216 945

L208 933

L207 934

L206 934

L206 933

C207 933 206 930 204 927

L201 923

L200 924

L199 924

L199 923

L200 922

L189 907

C183 899 176 888 173 884

C159 865 147 849 146 849

L145 849

L145 848

L146 847

L144 846

C143 845 142 844 142 844

C142 844 142 842 141 840

L139 837

L138 838

L137 838

L137 837

C137 836 135 832 132 827

L126 819

L125 820

L124 820

L124 819

C125 819 124 817 123 815

L121 812

L120 813

L119 813

L119 812

L120 811

L115 804

C105 791 101 786 98 782

L95 779

L96 779

L97 779

L94 777

L92 775

L93 775

L94 775

L91 773

L89 771

L89 770

L90 770

L86 766

C84 763 82 761 82 761

L81 761

L81 760

L82 759

L81 758

L79 758

L79 757

C80 756 73 747 72 747

L71 747

L71 746

C72 745 62 732 61 732

L60 732

L60 731

L61 731

L58 726

C56 724 54 722 54 722

L53 722

L53 721

L54 720

L52 719

C51 718 50 717 50 717

C49 714 44 707 43 707

L42 707

L42 706

L43 705

L40 702

L37 699

L38 699

L39 699

L36 697

L34 695

L35 695

L35 694

L32 691

L29 688

L30 688

L30 687

L27 684

L24 681

L25 681

L25 680

L22 677

L19 674

L20 674

L20 674

L16 668

C14 665 12 661 11 660

L11 658

L10 658

L9 658

L9 656

C9 654 6 645 5 644

L4 644

L4 643

C5 642 3 632 1 631

L0 631

L0 618

L0 605

L2 604

L3 604

L3 602

L2 600

L3 600

L4 600

L4 595

L5 590

L5 590

L6 590

L6 588

L5 585

L6 585

C7 584 15 551 15 550

L14 549

L15 549

C16 548 20 531 19 530

L19 529

L20 529

L21 529

L21 527

L20 525

L21 525

L22 524

L22 521

L22 517

L23 517

L24 517

L24 515

L23 513

L24 513

L25 513

L25 511

L24 509

L25 509

L26 509

L27 502

C28 499 29 495 28 495

L28 494

L29 494

L30 494

L31 489

C32 486 32 484 32 483

L31 482

L32 482

L33 482

L33 480

L32 478

L33 478

L34 478

L34 476

L33 474

L34 474

L35 474

L36 467

C37 463 38 460 38 459

C38 459 38 457 39 456

C40 454 40 451 40 449

C41 448 41 446 41 445

L42 444

L42 443

L41 443

L42 441

C43 441 43 440 43 439

C43 439 43 437 44 436

C44 434 45 431 45 430

C45 428 46 426 46 426

C47 425 53 400 53 399

L52 399

L53 397

L54 396

L54 395

L53 395

L54 394

C55 392 58 381 58 379

C58 379 58 377 59 376

C59 374 60 372 59 372

L59 371

L60 370

L61 370

L61 368

L60 367

L61 366

L62 366

L62 364

L61 363

L62 362

L63 362

L63 361

C62 360 63 359 63 358

C64 358 64 356 64 354

C65 353 65 351 65 350

C66 349 66 347 66 345

L67 343

L67 343

L67 343

L68 341

C68 337 69 336 69 334

L70 333

L70 332

L69 332

L70 331

C71 330 71 328 71 326

C72 325 72 323 72 322

C74 318 80 292 80 291

L79 291

L80 290

C80 289 81 287 81 285

C82 284 82 282 82 282

C82 282 82 281 82 281

C83 280 83 278 84 277

C85 275 85 273 85 272

L84 271

L85 270

C86 270 86 269 86 268

C86 267 86 265 87 264

C87 262 88 261 88 260

C88 260 88 258 89 257

C89 255 90 253 90 251

C91 249 91 246 92 245

C93 243 94 237 95 234

C95 233 95 232 95 231

C96 230 96 228 96 226

C97 225 97 223 97 223

C97 223 97 223 97 222

C97 222 98 221 99 220

C99 218 100 217 100 217

C100 215 106 204 107 203

C108 201 109 200 109 199

L109 198

L111 198

L112 197

L112 196

C112 195 113 194 115 192

C117 191 118 189 118 189

C118 187 123 182 125 182

C125 182 127 180 129 179

C131 177 134 175 134 175

L136 174

L136 173

L136 172

L137 172

C138 172 139 172 139 171

C139 171 142 169 145 168

C148 167 150 165 150 165

C150 164 157 161 159 160

C160 160 162 160 162 159

C162 158 164 158 165 158

C166 157 168 156 168 156

L169 155

L169 155

L169 156

L194 143

C239 121 251 115 253 115

C253 115 254 114 255 114

C256 113 259 111 262 110

L267 107

L267 107

L267 108

L301 91

C363 60 382 51 382 51

C383 51 392 46 404 41

C415 35 428 29 432 27

C436 25 440 23 441 22

C441 21 443 21 444 20

C445 20 451 17 458 14

L469 8

L469 9

L469 9

L471 8

C472 7 474 6 475 6

C476 6 477 6 478 5

C479 5 480 5 482 5

C488 4 493 3 494 1

L494 0

L510 0

L526 0

L526 1

L526 2

L532 3

C536 3 539 4 540 4

C541 5 543 5 544 5

C547 6 550 7 553 9

L556 10

L556 10

L556 9

L562 13

C566 14 570 16 571 16

C572 17 574 18 575 18

C576 20 577 20 579 20

C579 20 586 24 596 29

L612 37

L612 36

L612 36

L613 37

C613 38 614 38 615 38

C616 39 627 43 638 49

C680 70 735 97 741 100

C744 101 747 103 747 103

L747 104

L748 104

C749 104 753 106 758 109

C763 111 767 113 767 113

C769 113 770 113 771 115

C772 115 774 116 774 116

C775 117 777 117 778 117

L780 118

L780 119

L780 120

L783 121

C785 122 787 122 787 123

C787 123 794 126 802 130

C810 134 816 137 817 137

C818 137 840 148 841 149

C841 150 842 150 843 150

C845 151 884 170 886 172

C887 173 889 174 891 175

C892 176 894 178 895 179

C896 180 898 181 898 181

C900 181 907 188 907 190

C907 190 908 192 910 193

C912 195 913 196 913 197

L913 198

L915 199

L916 199

L916 201

L916 202

L917 202

L918 202

L919 206

L920 209

L921 209

L922 209

L922 210

L921 210

L923 213

C924 215 924 217 925 217

C925 218 925 218 925 218

C925 218 925 219 926 221

C926 222 926 224 927 226

C928 227 928 229 928 229

C928 230 929 235 931 239

C931 240 931 242 932 244

C932 246 932 248 933 248

C933 249 934 250 934 252

C934 256 937 267 938 267

C938 268 939 269 938 269

C938 270 938 272 939 274

C940 275 940 277 940 277

C940 278 941 279 941 281

C942 282 942 284 943 285

C943 285 943 286 943 286

C943 286 943 288 943 290

C944 292 944 295 945 297

C946 298 946 300 946 301

C946 301 946 303 947 305

C948 306 948 308 948 309

C948 309 948 311 949 313

C950 314 950 316 950 317

C951 321 952 326 953 327

L954 327

L953 328

C953 329 953 331 954 333

C955 334 955 336 956 337

C956 337 956 338 956 338

C956 338 956 340 957 342

C957 343 957 346 958 348

C959 349 959 351 959 352

L959 354

L960 354

L961 354

L960 357

L960 359

L961 359

L962 359

L961 360

L961 362

L962 362

L963 363

L962 364

L962 366

L963 366

L964 367

L963 368

L963 370

L964 370

L965 371

L964 372

L964 374

L965 374

L966 375

L966 376

C965 376 965 378 966 380

C967 381 967 384 968 385

C968 387 968 389 969 391

C970 392 970 394 970 394

C970 395 970 396 971 397

C971 398 971 399 972 399

C972 400 972 400 972 400

C972 400 972 402 972 403

C973 404 974 410 975 415

L977 425

L978 425

L979 425

L979 426

C978 427 983 448 984 449

L985 449

L984 451

L984 453

L985 453

L986 453

L986 457

L986 460

L987 461

L988 461

L987 463

L987 465

L988 465

L989 465

L988 467

L988 469

L989 469

L990 469

L989 471

L989 473

L990 473

L991 473

L990 475

L990 477

L991 477

L992 477

L991 479

L991 481

L992 481

L993 481

L993 485

L993 488

L994 489

L995 489

L994 491

L994 493

L995 493

L996 493

L996 494

C995 494 996 497 996 500

L997 505

L998 505

L999 505

L999 509

L999 512

L1000 513

L1001 513

L1000 515

L1000 517

L1001 517

L1002 517

L1002 518

C1001 518 1001 521 1002 523

L1003 528

L1004 528

L1005 528

L1004 530

L1004 532

L1005 532

L1006 532

L1005 533

C1005 534 1011 560 1012 561

L1013 561

L1012 562

C1012 562 1013 567 1014 571

L1016 580

L1017 580

L1018 580

L1018 584

L1018 587

L1019 588

L1020 588

L1019 590

L1019 592

L1020 592

L1021 592

L1021 595

C1021 596 1022 598 1022 599

C1024 600 1024 602 1024 616

L1024 633

L1022 633

L1020 634

L1020 637

L1021 641

L1020 641

L1019 641

L1017 647

C1016 651 1015 654 1016 654

L1016 655

L1015 655

C1014 655 1010 663 1011 664

C1011 664 1010 665 1009 666

C1009 666 1008 667 1008 668

C1008 669 1006 670 1005 672

C1001 677 987 696 988 697

L988 699

L987 698

L987 697

L981 705

L975 713

L976 714

L976 715

L975 715

L974 715

L971 719

L967 724

L968 725

L968 726

L967 726

L966 726

L960 734

C957 738 954 742 954 743

L955 744

L954 743

L953 743

L950 748

C948 751 947 754 947 754

L947 755

L946 755

L945 754

L938 764

L931 774

L932 775

L932 776

L931 776

L930 775

L923 785

L915 796

L916 797

L916 798

L915 798

L914 797

L913 798

L912 800

L913 801

L913 802

L912 802

L911 801

L899 818

C892 827 882 842 876 850

L866 864

L867 865

L867 866

L866 866

L865 866

L857 876

C853 881 850 886 851 887

L851 888

L850 888

L849 887

L847 890

L845 893

L846 894

L846 895

L845 895

L844 894

L839 901

C837 904 834 909 832 910

C831 912 830 914 830 915

L831 916

L830 916

L829 915

L826 920

L822 925

L823 926

L823 927

L822 927

L821 927

L811 940

C806 947 801 954 802 955

L802 956

L801 956

L800 955

L798 958

C788 972 775 989 767 996

C762 1001 759 1005 759 1005

L759 1006

L758 1005

C757 1005 755 1006 752 1008

C750 1010 744 1013 739 1015

L731 1019

L731 1019

L732 1020

L728 1020

C726 1020 722 1020 720 1020

L717 1021

L717 1023

L717 1024

L512 1024

L306 1024

L306 1022

Z

M336 955

C342 955 349 953 352 952

C358 951 375 950 383 951

C385 951 391 953 397 954

C406 956 407 956 415 955

C420 954 427 954 431 953

C447 953 451 953 453 952

C454 951 457 951 465 952

C470 953 475 953 477 953

C485 953 489 952 491 951

C494 949 503 951 507 954

C510 956 512 956 517 956

C523 956 524 956 526 954

C527 952 529 952 532 951

C535 951 538 951 540 950

C545 948 551 949 559 952

C566 955 574 956 580 954

C584 953 597 954 605 957

C608 958 611 958 614 958

C619 957 620 956 621 954

C624 949 628 947 639 947

C640 947 644 948 648 950

C654 953 657 953 664 954

C669 954 676 955 679 955

C691 958 709 952 710 944

L711 942

L712 942

C713 942 715 941 715 940

L717 939

L719 941

C719 942 720 943 720 945

C720 946 720 947 721 947

L722 948

L722 911

L723 875

L733 874

C745 873 746 874 746 878

L745 881

L746 881

C746 881 748 880 750 878

C754 875 756 874 764 872

L767 872

L760 871

C756 871 752 871 750 871

C745 872 735 870 729 867

C728 867 726 866 725 866

L724 866

L724 863

C724 861 724 859 725 858

L726 857

L724 855

L723 854

L729 849

C734 844 735 842 735 840

C735 830 736 828 738 825

C740 824 741 822 741 821

C741 820 744 818 747 818

C748 818 753 818 758 819

C763 820 769 820 773 821

C778 821 779 821 783 818

C785 816 787 814 788 814

C788 814 790 812 792 809

C799 802 802 799 805 797

L808 796

L811 800

C813 801 814 804 814 805

L814 807

L815 806

C816 806 816 788 816 758

L817 711

L821 710

C823 710 826 710 827 709

L829 709

L829 708

C829 707 831 704 833 701

C842 690 858 667 869 652

C895 615 898 610 898 599

C898 597 895 583 891 569

C888 555 884 540 883 536

C882 532 878 518 875 505

C872 492 862 453 853 418

C844 383 833 339 828 320

C823 300 818 282 816 279

C811 269 815 271 686 206

C640 184 601 164 599 163

L595 162

L595 164

C595 165 594 167 593 167

C591 168 590 169 590 169

C590 170 583 174 581 174

C580 174 579 175 578 175

C577 176 570 178 566 178

C564 178 563 178 563 179

C562 179 560 180 558 180

C548 182 539 186 535 190

C532 193 532 193 533 197

C534 200 535 201 541 205

C551 211 553 212 556 212

C557 212 559 212 560 213

L561 213

L560 214

L559 215

L561 215

C563 215 565 216 566 217

L568 219

L566 220

L565 221

L566 221

L568 222

L567 223

C565 225 566 226 572 229

C580 233 586 239 589 245

C592 251 591 256 588 264

C586 267 585 270 586 270

C586 270 588 271 589 271

L593 272

L593 271

L593 270

L594 271

C595 273 595 283 594 286

C592 291 582 295 573 295

L570 295

L570 296

C571 296 602 297 640 297

C710 298 710 298 717 301

C729 307 737 317 739 330

C740 334 740 390 740 487

C740 639 740 639 736 645

C732 653 725 660 717 663

C712 665 711 665 657 666

C627 666 540 667 463 667

C344 667 321 667 316 666

C303 663 294 656 289 645

C286 639 286 639 286 483

C286 327 286 327 288 321

C291 314 299 306 304 303

C314 297 313 297 397 297

L474 297

L475 298

C475 298 474 301 472 303

C471 305 469 309 468 311

C466 315 466 315 395 315

C351 315 322 315 320 316

C315 317 308 324 306 328

C304 332 304 335 304 359

L304 385

L513 385

L721 385

L721 359

C721 342 721 332 720 330

C718 325 714 320 710 318

C706 316 706 316 622 315

C575 315 536 315 534 315

C533 316 531 317 531 318

C530 319 518 326 516 326

L515 326

L515 324

L516 323

L515 324

C514 324 513 325 512 325

L511 325

L511 324

C511 323 511 322 511 321

C510 320 512 317 515 313

C518 310 521 306 522 305

L524 302

L521 304

C515 307 506 316 504 320

C500 328 501 331 512 341

C522 351 523 353 519 359

C518 361 515 363 513 364

C508 366 502 363 493 355

C481 343 477 330 481 317

C483 311 491 298 494 297

C494 296 495 295 495 295

L495 294

L491 297

C488 298 486 299 485 299

L483 299

L482 296

L482 293

L480 293

L479 293

L479 290

C479 288 480 287 482 285

C484 284 486 282 486 281

C487 279 489 277 490 275

C492 272 493 270 493 268

L494 264

L494 265

L495 265

L494 263

C493 258 491 256 484 253

L477 250

L477 249

L478 249

L480 250

L483 251

L481 250

C480 249 479 248 479 248

C478 248 474 245 471 241

L470 240

L468 240

L467 241

L467 239

C466 238 466 237 466 237

L467 237

L467 238

L467 239

L469 238

C470 238 473 238 474 237

L476 236

L478 237

L479 239

L479 238

L480 237

L481 238

C483 239 489 240 492 239

L494 238

L491 238

C471 233 463 230 456 223

C448 216 446 205 450 195

C453 189 462 180 470 175

C474 172 477 170 477 170

L477 169

L478 169

L479 170

L480 168

L481 167

L479 167

C478 168 476 168 474 168

L470 169

L471 168

L471 167

L470 167

L468 168

L468 166

C468 165 470 163 472 161

C474 160 478 157 481 155

C484 153 486 151 486 151

C487 151 489 150 491 148

C496 144 500 142 506 139

C508 138 511 136 513 135

C515 132 518 130 523 129

L527 128

L523 127

C517 124 508 123 501 126

C497 127 433 159 358 197

C211 270 214 269 209 279

C206 284 197 318 180 387

C147 514 141 537 130 579

C124 604 124 607 138 627

C142 631 150 642 155 650

C166 665 169 669 186 691

C199 709 203 715 203 716

L203 717

L204 717

L205 717

L205 713

L205 710

L235 710

C269 711 271 711 281 720

C287 725 291 732 292 740

C294 752 290 763 282 770

C272 779 264 782 244 782

L230 782

L230 796

L230 810

L221 810

C215 810 211 811 210 811

L210 812

L216 812

C226 812 229 812 231 810

C232 810 233 809 234 809

C234 809 236 808 237 806

C241 803 248 800 255 801

C265 801 272 806 277 815

C279 818 281 821 282 821

C283 822 284 823 284 824

C284 825 285 828 286 830

C289 836 291 841 291 842

L291 844

L289 844

L288 845

L288 846

L289 847

L285 848

L281 849

L298 849

C334 849 345 851 354 858

C364 866 365 883 355 894

L352 898

L352 898

C352 899 354 900 356 901

C363 905 366 911 366 922

C366 935 360 943 348 947

C342 949 339 949 312 950

C296 950 281 951 280 951

L277 951

L280 952

C282 953 289 954 295 956

C308 958 318 958 336 955

Z

M742 953

L745 951

L742 951

C737 950 725 950 725 951

L724 952

L727 952

L729 953

L729 954

L729 955

L734 955

C737 954 740 953 742 953

Z

M750 942

L751 942

L751 937

C751 934 751 930 751 929

C752 928 753 924 753 921

C754 918 755 914 757 913

C758 911 759 909 759 909

L759 908

L760 908

C762 908 766 905 769 900

L772 897

L771 896

C771 895 762 895 758 896

C753 898 747 903 747 907

C746 908 746 919 747 930

L747 950

L748 946

L749 942

L750 942

Z

M275 895

C275 874 274 855 274 853

L273 851

L272 856

C272 861 272 887 272 892

C273 893 273 905 273 920

L273 946

L274 940

C274 937 275 917 275 895

Z

M333 929

C340 927 343 921 340 914

C337 910 334 909 316 909

L299 909

L299 912

C300 914 300 919 300 923

L300 930

L314 930

C322 930 330 929 333 929

Z

M773 885

L772 878

L772 886

L772 895

L773 893

C773 892 773 888 773 885

Z

M332 888

C335 887 338 882 338 880

C338 876 335 872 332 871

C330 870 322 870 314 870

L299 870

L299 880

L299 890

L314 890

C326 890 330 890 332 888

Z

M830 811

C828 811 826 811 824 811

L822 812

L827 812

L833 812

L830 811

Z

M259 760

C265 756 268 752 268 746

C268 739 266 735 260 732

C257 731 254 730 243 730

L230 730

L230 746

L230 762

L242 762

C252 762 254 762 259 760

Z

M368 620

C368 591 368 589 364 586

C362 584 358 584 332 584

L303 584

L303 609

C304 637 304 638 309 643

C314 647 320 648 345 648

L368 648

L368 620

Z

M639 633

L639 619

L513 619

L387 619

L386 633

L386 648

L513 648

L639 648

L639 633

Z

M708 647

C714 645 719 640 721 634

C722 632 722 621 722 607

L722 584

L692 584

C663 584 663 584 660 587

C657 589 657 589 657 619

L657 648

L681 648

C695 648 706 648 708 647

Z

M334 558

C334 553 334 516 334 476

L335 403

L319 403

L304 403

L304 485

L304 567

L319 567

L334 567

L334 558

Z

M721 485

L721 403

L706 403

L691 404

L691 485

L690 567

L705 567

L721 567

L721 485

Z

M497 557

C497 556 498 532 497 531

C497 531 487 525 475 519

C451 505 446 502 446 501

C446 499 449 497 459 492

C464 489 475 484 483 479

C497 471 497 471 497 459

C497 447 496 446 495 445

C493 444 492 444 490 445

C482 450 458 463 434 477

C419 485 407 492 406 493

C404 496 403 505 405 508

C406 509 415 514 424 520

C434 525 444 531 447 533

C450 534 459 539 467 543

C474 547 483 552 487 554

C493 558 495 559 497 557

Z

M540 556

C543 555 549 551 556 548

C562 544 572 538 578 535

C584 532 597 524 606 519

C623 509 623 509 623 501

C623 493 623 493 615 488

C607 483 596 477 551 452

C543 447 536 444 535 444

L532 444

L532 446

C531 446 531 452 531 459

C531 472 529 470 549 480

C573 494 581 498 582 500

L583 501

L581 503

C580 504 576 507 571 509

C528 532 531 530 531 543

C531 559 532 560 540 556

Z

M529 299

L529 299

L527 300

C526 301 525 301 525 302

L525 302

L527 301

C528 300 529 300 529 299

Z

M565 255

L566 254

L566 253

C565 253 565 252 564 252

L563 252

L563 254

L562 256

L563 256

C563 256 564 256 565 255

Z

M475 203

C476 201 478 199 485 195

C490 192 494 188 494 188

L494 187

L487 191

C478 195 471 202 471 205

L471 207

L473 207

C474 207 475 205 475 203

Z

M397 949

C389 947 383 942 379 933

C377 928 376 927 376 902

C376 888 376 876 376 875

L376 874

L388 874

L400 875

L400 898

C400 913 401 921 402 923

C407 931 421 931 427 922

C428 920 429 917 429 897

L430 875

L441 875

L453 875

L453 912

C453 933 453 950 452 950

C452 950 447 950 441 950

L431 950

L430 946

L430 943

L425 946

C417 951 406 952 397 949

Z

M568 950

C558 948 547 939 542 928

C539 921 539 920 539 912

C539 900 541 893 549 885

C556 877 563 874 574 873

C584 873 588 874 594 878

L598 880

L598 863

L599 846

L609 845

C615 845 620 845 621 846

C622 846 622 859 622 897

C622 925 622 948 622 949

L622 950

L612 950

C602 950 600 949 600 945

L600 943

L600 943

C599 943 597 944 594 946

C587 951 579 952 568 950

Z

M592 927

C596 923 598 920 599 914

C600 900 590 890 576 893

C560 896 557 920 572 928

C578 931 586 930 592 927

Z

M664 950

C652 948 640 938 635 928

C633 924 633 920 632 914

C632 903 634 897 639 888

C653 868 691 868 705 888

C711 896 714 910 712 916

L711 919

L683 919

L656 918

L656 920

C656 920 658 923 660 924

C667 931 679 933 690 927

C696 924 697 925 704 932

L708 936

L707 938

C707 939 704 941 700 944

C691 950 677 952 664 950

Z

M676 904

L690 904

L689 901

C686 893 674 889 666 892

C662 894 656 900 656 902

L656 904

L657 904

C658 905 659 905 660 904

C661 904 668 904 676 904

Z

M467 949

C467 948 467 931 467 911

L468 875

L479 875

L490 875

L490 912

L490 950

L479 950

L467 950

L467 949

Z

M505 898

L506 846

L516 845

C523 845 528 845 528 846

C528 846 529 870 529 898

L529 950

L517 950

L505 950

L505 898

Z

M714 939

L715 936

L716 936

L716 937

L714 939

L712 942

L714 939

Z

M470 865

C458 858 463 841 477 841

C485 841 491 846 492 853

C493 863 480 871 470 865

Z

M307 836

C301 835 293 831 293 830

C292 828 301 814 303 813

C304 812 305 813 307 813

C312 816 317 815 321 813

C325 809 326 806 321 796

C314 780 297 740 296 737

L294 734

L295 734

C295 733 300 733 307 733

C320 733 317 730 330 760

L337 779

L339 776

C340 774 344 764 348 753

C356 734 356 734 367 733

C373 733 378 733 378 733

L379 734

L364 771

C347 812 342 821 338 826

C331 834 317 838 307 836

Z

M649 811

C631 809 616 799 607 785

C595 765 599 740 616 724

C624 716 630 713 641 710

C653 707 670 708 682 713

C687 716 697 723 697 724

C697 726 684 739 683 739

C682 739 680 737 676 735

C662 726 643 728 633 739

C628 746 626 751 626 759

C626 776 636 787 654 790

C659 790 669 789 673 786

C676 785 676 785 676 779

L676 772

L665 772

L655 772

L655 763

L655 754

L675 753

C687 753 697 753 697 754

C698 754 698 764 698 775

C698 800 699 797 686 804

C674 810 660 812 649 811

Z

M750 811

C734 809 724 801 717 788

C712 778 711 773 711 740

L712 711

L724 711

L736 711

L736 743

C737 778 737 777 743 784

C747 788 751 789 757 789

C765 789 771 786 774 780

C776 776 777 775 777 743

L778 711

L789 711

L801 711

L801 739

C803 778 801 787 790 798

C781 808 765 813 750 811

Z

M410 809

C409 809 409 791 409 770

L409 731

L394 731

L380 731

L379 720

L379 710

L422 710

L465 711

L465 720

C465 727 465 730 464 730

C463 731 456 731 448 731

L434 731

L434 770

L434 810

L422 810

C416 810 410 810 410 809

Z

M473 808

C473 807 473 784 473 758

L474 711

L485 710

C493 710 497 710 497 711

C498 712 498 721 498 732

L498 752

L504 747

C507 744 516 734 524 726

C538 710 538 710 552 710

L566 710

L566 711

C566 711 558 720 538 742

L526 754

L528 757

C529 758 536 768 545 779

C566 805 568 808 568 809

L568 810

L554 810

C541 810 541 810 528 794

C520 785 513 777 512 775

L509 772

L503 777

C498 783 498 783 498 796

L498 810

L486 810

L474 810

L473 808

Z

M334 363

C329 361 327 359 325 355

C324 351 324 350 325 346

C329 331 348 329 355 342

C359 350 357 357 350 362

C346 365 338 366 334 363

Z

M627 364

C614 358 614 341 626 335

C630 333 632 333 635 333

C644 335 649 341 649 349

C649 355 647 359 642 362

C638 365 631 366 627 364

Z

M677 364

C668 360 664 349 669 341

C677 330 693 331 698 344

C703 356 690 369 677 364

Z

M327 629

C321 625 319 622 320 615

C320 612 320 609 322 607

C324 604 331 600 335 600

C339 600 346 604 348 607

C349 609 350 612 351 614

C351 620 348 626 343 629

C339 632 331 632 327 629

Z

M685 631

C672 626 670 611 681 603

C691 595 707 605 706 618

C705 623 701 628 695 631

C691 632 690 632 685 631

Z

"/>

<path fill="#6b38b1" stroke="none" d="
M306 1022

L305 1021

L303 1021

L302 1022

L303 1021

L303 1020

L300 1020

L297 1021

L298 1020

L298 1019

L296 1019

L293 1020

L294 1019

L294 1018

L289 1017

C286 1016 283 1015 283 1015

L283 1016

L281 1014

C280 1013 276 1011 273 1009

C266 1005 254 995 249 989

L245 984

L244 985

L243 985

L243 984

L244 983

L239 976

C237 973 233 967 231 965

C230 963 228 960 227 959

C226 957 221 951 216 945

L208 933

L207 934

L206 934

L206 933

C207 933 206 930 204 927

L201 923

L200 924

L199 924

L199 923

L200 922

L189 907

C183 899 176 888 173 884

C159 865 147 849 146 849

L145 849

L145 848

L146 847

L144 846

C143 845 142 844 142 844

C142 844 142 842 141 840

L139 837

L138 838

L137 838

L137 837

C137 836 135 832 132 827

L126 819

L125 820

L124 820

L124 819

C125 819 124 817 123 815

L121 812

L120 813

L119 813

L119 812

L120 811

L115 804

C105 791 101 786 98 782

L95 779

L96 779

L97 779

L94 777

L92 775

L93 775

L94 775

L91 773

L89 771

L89 770

L90 770

L86 766

C84 763 82 761 82 761

L81 761

L81 760

L82 759

L81 758

L79 758

L79 757

C80 756 73 747 72 747

L71 747

L71 746

C72 745 62 732 61 732

L60 732

L60 731

L61 731

L58 726

C56 724 54 722 54 722

L53 722

L53 721

L54 720

L52 719

C51 718 50 717 50 717

C49 714 44 707 43 707

L42 707

L42 706

L43 705

L40 702

L37 699

L38 699

L39 699

L36 697

L34 695

L35 695

L35 694

L32 691

L29 688

L30 688

L30 687

L27 684

L24 681

L25 681

L25 680

L22 677

L19 674

L20 674

L20 674

L16 668

C14 665 12 661 11 660

L11 658

L10 658

L9 658

L9 656

C9 654 6 645 5 644

L4 644

L4 643

C5 642 3 632 1 631

L0 631

L0 618

L0 605

L2 604

L3 604

L3 602

L2 600

L3 600

L4 600

L4 595

L5 590

L5 590

L6 590

L6 588

L5 585

L6 585

C7 584 15 551 15 550

L14 549

L15 549

C16 548 20 531 19 530

L19 529

L20 529

L21 529

L21 527

L20 525

L21 525

L22 524

L22 521

L22 517

L23 517

L24 517

L24 515

L23 513

L24 513

L25 513

L25 511

L24 509

L25 509

L26 509

L27 502

C28 499 29 495 28 495

L28 494

L29 494

L30 494

L31 489

C32 486 32 484 32 483

L31 482

L32 482

L33 482

L33 480

L32 478

L33 478

L34 478

L34 476

L33 474

L34 474

L35 474

L36 467

C37 463 38 460 38 459

C38 459 38 457 39 456

C40 454 40 451 40 449

C41 448 41 446 41 445

L42 444

L42 443

L41 443

L42 441

C43 441 43 440 43 439

C43 439 43 437 44 436

C44 434 45 431 45 430

C45 428 46 426 46 426

C47 425 53 400 53 399

L52 399

L53 397

L54 396

L54 395

L53 395

L54 394

C55 392 58 381 58 379

C58 379 58 377 59 376

C59 374 60 372 59 372

L59 371

L60 370

L61 370

L61 368

L60 367

L61 366

L62 366

L62 364

L61 363

L62 362

L63 362

L63 361

C62 360 63 359 63 358

C64 358 64 356 64 354

C65 353 65 351 65 350

C66 349 66 347 66 345

L67 343

L67 343

L67 343

L68 341

C68 337 69 336 69 334

L70 333

L70 332

L69 332

L70 331

C71 330 71 328 71 326

C72 325 72 323 72 322

C74 318 80 292 80 291

L79 291

L80 290

C80 289 81 287 81 285

C82 284 82 282 82 282

C82 282 82 281 82 281

C83 280 83 278 84 277

C85 275 85 273 85 272

L84 271

L85 270

C86 270 86 269 86 268

C86 267 86 265 87 264

C87 262 88 261 88 260

C88 260 88 258 89 257

C89 255 90 253 90 251

C91 249 91 246 92 245

C93 243 94 237 95 234

C95 233 95 232 95 231

C96 230 96 228 96 226

C97 225 97 223 97 223

C97 223 97 223 97 222

C97 222 98 221 99 220

C99 218 100 217 100 217

C100 215 106 204 107 203

C108 201 109 200 109 199

L109 198

L111 198

L112 197

L112 196

C112 195 113 194 115 192

C117 191 118 189 118 189

C118 187 123 182 125 182

C125 182 127 180 129 179

C131 177 134 175 134 175

L136 174

L136 173

L136 172

L137 172

C138 172 139 172 139 171

C139 171 142 169 145 168

C148 167 150 165 150 165

C150 164 157 161 159 160

C160 160 162 160 162 159

C162 158 164 158 165 158

C166 157 168 156 168 156

L169 155

L169 155

L169 156

L194 143

C239 121 251 115 253 115

C253 115 254 114 255 114

C256 113 259 111 262 110

L267 107

L267 107

L267 108

L301 91

C363 60 382 51 382 51

C383 51 392 46 404 41

C415 35 428 29 432 27

C436 25 440 23 441 22

C441 21 443 21 444 20

C445 20 451 17 458 14

L469 8

L469 9

L469 9

L471 8

C472 7 474 6 475 6

C476 6 477 6 478 5

C479 5 480 5 482 5

C488 4 493 3 494 1

L494 0

L510 0

L526 0

L526 1

L526 2

L532 3

C536 3 539 4 540 4

C541 5 543 5 544 5

C547 6 550 7 553 9

L556 10

L556 10

L556 9

L562 13

C566 14 570 16 571 16

C572 17 574 18 575 18

C576 20 577 20 579 20

C579 20 586 24 596 29

L612 37

L612 36

L612 36

L613 37

C613 38 614 38 615 38

C616 39 627 43 638 49

C680 70 735 97 741 100

C744 101 747 103 747 103

L747 104

L748 104

C749 104 753 106 758 109

C763 111 767 113 767 113

C769 113 770 113 771 115

C772 115 774 116 774 116

C775 117 777 117 778 117

L780 118

L780 119

L780 120

L783 121

C785 122 787 122 787 123

C787 123 794 126 802 130

C810 134 816 137 817 137

C818 137 840 148 841 149

C841 150 842 150 843 150

C845 151 884 170 886 172

C887 173 889 174 891 175

C892 176 894 178 895 179

C896 180 898 181 898 181

C900 181 907 188 907 190

C907 190 908 192 910 193

C912 195 913 196 913 197

L913 198

L915 199

L916 199

L916 201

L916 202

L917 202

L918 202

L919 206

L920 209

L921 209

L922 209

L922 210

L921 210

L923 213

C924 215 924 217 925 217

C925 218 925 218 925 218

C925 218 925 219 926 221

C926 222 926 224 927 226

C928 227 928 229 928 229

C928 230 929 235 931 239

C931 240 931 242 932 244

C932 246 932 248 933 248

C933 249 934 250 934 252

C934 256 937 267 938 267

C938 268 939 269 938 269

C938 270 938 272 939 274

C940 275 940 277 940 277

C940 278 941 279 941 281

C942 282 942 284 943 285

C943 285 943 286 943 286

C943 286 943 288 943 290

C944 292 944 295 945 297

C946 298 946 300 946 301

C946 301 946 303 947 305

C948 306 948 308 948 309

C948 309 948 311 949 313

C950 314 950 316 950 317

C951 321 952 326 953 327

L954 327

L953 328

C953 329 953 331 954 333

C955 334 955 336 956 337

C956 337 956 338 956 338

C956 338 956 340 957 342

C957 343 957 346 958 348

C959 349 959 351 959 352

L959 354

L960 354

L961 354

L960 357

L960 359

L961 359

L962 359

L961 360

L961 362

L962 362

L963 363

L962 364

L962 366

L963 366

L964 367

L963 368

L963 370

L964 370

L965 371

L964 372

L964 374

L965 374

L966 375

L966 376

C965 376 965 378 966 380

C967 381 967 384 968 385

C968 387 968 389 969 391

C970 392 970 394 970 394

C970 395 970 396 971 397

C971 398 971 399 972 399

C972 400 972 400 972 400

C972 400 972 402 972 403

C973 404 974 410 975 415

L977 425

L978 425

L979 425

L979 426

C978 427 983 448 984 449

L985 449

L984 451

L984 453

L985 453

L986 453

L986 457

L986 460

L987 461

L988 461

L987 463

L987 465

L988 465

L989 465

L988 467

L988 469

L989 469

L990 469

L989 471

L989 473

L990 473

L991 473

L990 475

L990 477

L991 477

L992 477

L991 479

L991 481

L992 481

L993 481

L993 485

L993 488

L994 489

L995 489

L994 491

L994 493

L995 493

L996 493

L996 494

C995 494 996 497 996 500

L997 505

L998 505

L999 505

L999 509

L999 512

L1000 513

L1001 513

L1000 515

L1000 517

L1001 517

L1002 517

L1002 518

C1001 518 1001 521 1002 523

L1003 528

L1004 528

L1005 528

L1004 530

L1004 532

L1005 532

L1006 532

L1005 533

C1005 534 1011 560 1012 561

L1013 561

L1012 562

C1012 562 1013 567 1014 571

L1016 580

L1017 580

L1018 580

L1018 584

L1018 587

L1019 588

L1020 588

L1019 590

L1019 592

L1020 592

L1021 592

L1021 595

C1021 596 1022 598 1022 599

C1024 600 1024 602 1024 616

L1024 633

L1022 633

L1020 634

L1020 637

L1021 641

L1020 641

L1019 641

L1017 647

C1016 651 1015 654 1016 654

L1016 655

L1015 655

C1014 655 1010 663 1011 664

C1011 664 1010 665 1009 666

C1009 666 1008 667 1008 668

C1008 669 1006 670 1005 672

C1001 677 987 696 988 697

L988 699

L987 698

L987 697

L981 705

L975 713

L976 714

L976 715

L975 715

L974 715

L971 719

L967 724

L968 725

L968 726

L967 726

L966 726

L960 734

C957 738 954 742 954 743

L955 744

L954 743

L953 743

L950 748

C948 751 947 754 947 754

L947 755

L946 755

L945 754

L938 764

L931 774

L932 775

L932 776

L931 776

L930 775

L923 785

L915 796

L916 797

L916 798

L915 798

L914 797

L913 798

L912 800

L913 801

L913 802

L912 802

L911 801

L899 818

C892 827 882 842 876 850

L866 864

L867 865

L867 866

L866 866

L865 866

L857 876

C853 881 850 886 851 887

L851 888

L850 888

L849 887

L847 890

L845 893

L846 894

L846 895

L845 895

L844 894

L839 901

C837 904 834 909 832 910

C831 912 830 914 830 915

L831 916

L830 916

L829 915

L826 920

L822 925

L823 926

L823 927

L822 927

L821 927

L811 940

C806 947 801 954 802 955

L802 956

L801 956

L800 955

L798 958

C788 972 775 989 767 996

C762 1001 759 1005 759 1005

L759 1006

L758 1005

C757 1005 755 1006 752 1008

C750 1010 744 1013 739 1015

L731 1019

L731 1019

L732 1020

L728 1020

C726 1020 722 1020 720 1020

L717 1021

L717 1023

L717 1024

L512 1024

L306 1024

L306 1022

Z

M336 955

C342 955 349 953 352 952

C358 951 375 950 383 951

C385 951 391 953 397 954

C406 956 407 956 415 955

C420 954 427 954 431 953

C447 953 451 953 453 952

C454 951 457 951 465 952

C470 953 475 953 477 953

C485 953 489 952 491 951

C494 949 503 951 507 954

C510 956 512 956 517 956

C523 956 524 956 526 954

C527 952 529 952 532 951

C535 951 538 951 540 950

C545 948 551 949 559 952

C566 955 574 956 580 954

C584 953 597 954 605 957

C608 958 611 958 614 958

C619 957 620 956 621 954

C624 949 628 947 639 947

C640 947 644 948 648 950

C654 953 657 953 664 954

C669 954 676 955 679 955

C691 958 709 952 710 944

L711 942

L712 942

C713 942 715 941 715 940

L717 939

L719 941

C719 942 720 943 720 945

C720 946 720 947 721 947

L722 948

L722 911

L723 875

L733 874

C745 873 746 874 746 878

L745 881

L746 881

C746 881 748 880 750 878

C754 875 756 874 764 872

L767 872

L760 871

C756 871 752 871 750 871

C745 872 735 870 729 867

C728 867 726 866 725 866

L724 866

L724 863

C724 861 724 859 725 858

L726 857

L724 855

L723 854

L729 849

C734 844 735 842 735 840

C735 830 736 828 738 825

C740 824 741 822 741 821

C741 820 744 818 747 818

C748 818 753 818 758 819

C763 820 769 820 773 821

C778 821 779 821 783 818

C785 816 787 814 788 814

C788 814 790 812 792 809

C799 802 802 799 805 797

L808 796

L811 800

C813 801 814 804 814 805

L814 807

L815 806

C816 806 816 788 816 758

L817 711

L821 710

C823 710 826 710 827 709

L829 709

L829 708

C829 707 831 704 833 701

C842 690 858 667 869 652

C895 615 898 610 898 599

C898 597 895 583 891 569

C888 555 884 540 883 536

C882 532 878 518 875 505

C872 492 862 453 853 418

C844 383 833 339 828 320

C823 300 818 282 816 279

C811 269 815 271 686 206

C640 184 601 164 599 163

L595 162

L595 164

C595 165 594 167 593 167

C591 168 590 169 590 169

C590 170 583 174 581 174

C580 174 579 175 578 175

C577 176 570 178 566 178

C564 178 563 178 563 179

C562 179 560 180 558 180

C548 182 539 186 535 190

C532 193 532 193 533 197

C534 200 535 201 541 205

C551 211 553 212 556 212

C557 212 559 212 560 213

L561 213

L560 214

L559 215

L561 215

C563 215 565 216 566 217

L568 219

L566 220

L565 221

L566 221

L568 222

L567 223

C565 225 566 226 572 229

C580 233 586 239 589 245

C592 251 591 256 588 264

C586 267 585 270 586 270

C586 270 588 271 589 271

L593 272

L593 271

L593 270

L594 271

C595 273 595 283 594 286

C592 291 582 295 573 295

L570 295

L570 296

C571 296 602 297 640 297

C710 298 710 298 717 301

C729 307 737 317 739 330

C740 334 740 390 740 487

C740 639 740 639 736 645

C732 653 725 660 717 663

C712 665 711 665 657 666

C627 666 540 667 463 667

C344 667 321 667 316 666

C303 663 294 656 289 645

C286 639 286 639 286 483

C286 327 286 327 288 321

C291 314 299 306 304 303

C314 297 313 297 397 297

L474 297

L475 298

C475 298 474 301 472 303

C471 305 469 309 468 311

C466 315 466 315 395 315

C351 315 322 315 320 316

C315 317 308 324 306 328

C304 332 304 335 304 359

L304 385

L513 385

L721 385

L721 359

C721 342 721 332 720 330

C718 325 714 320 710 318

C706 316 706 316 622 315

C575 315 536 315 534 315

C533 316 531 317 531 318

C530 319 518 326 516 326

L515 326

L515 324

L516 323

L515 324

C514 324 513 325 512 325

L511 325

L511 324

C511 323 511 322 511 321

C510 320 512 317 515 313

C518 310 521 306 522 305

L524 302

L521 304

C515 307 506 316 504 320

C500 328 501 331 512 341

C522 351 523 353 519 359

C518 361 515 363 513 364

C508 366 502 363 493 355

C481 343 477 330 481 317

C483 311 491 298 494 297

C494 296 495 295 495 295

L495 294

L491 297

C488 298 486 299 485 299

L483 299

L482 296

L482 293

L480 293

L479 293

L479 290

C479 288 480 287 482 285

C484 284 486 282 486 281

C487 279 489 277 490 275

C492 272 493 270 493 268

L494 264

L494 265

L495 265

L494 263

C493 258 491 256 484 253

L477 250

L477 249

L478 249

L480 250

L483 251

L481 250

C480 249 479 248 479 248

C478 248 474 245 471 241

L470 240

L468 240

L467 241

L467 239

C466 238 466 237 466 237

L467 237

L467 238

L467 239

L469 238

C470 238 473 238 474 237

L476 236

L478 237

L479 239

L479 238

L480 237

L481 238

C483 239 489 240 492 239

L494 238

L491 238

C471 233 463 230 456 223

C448 216 446 205 450 195

C453 189 462 180 470 175

C474 172 477 170 477 170

L477 169

L478 169

L479 170

L480 168

L481 167

L479 167

C478 168 476 168 474 168

L470 169

L471 168

L471 167

L470 167

L468 168

L468 166

C468 165 470 163 472 161

C474 160 478 157 481 155

C484 153 486 151 486 151

C487 151 489 150 491 148

C496 144 500 142 506 139

C508 138 511 136 513 135

C515 132 518 130 523 129

L527 128

L523 127

C517 124 508 123 501 126

C497 127 433 159 358 197

C211 270 214 269 209 279

C206 284 197 318 180 387

C147 514 141 537 130 579

C124 604 124 607 138 627

C142 631 150 642 155 650

C166 665 169 669 186 691

C199 709 203 715 203 716

L203 717

L204 717

L205 717

L205 713

L205 710

L235 710

C269 711 271 711 281 720

C287 725 291 732 292 740

C294 752 290 763 282 770

C272 779 264 782 244 782

L230 782

L230 796

L230 810

L221 810

C215 810 211 811 210 811

L210 812

L216 812

C226 812 229 812 231 810

C232 810 233 809 234 809

C234 809 236 808 237 806

C241 803 248 800 255 801

C265 801 272 806 277 815

C279 818 281 821 282 821

C283 822 284 823 284 824

C284 825 285 828 286 830

C289 836 291 841 291 842

L291 844

L289 844

L288 845

L288 846

L289 847

L285 848

L281 849

L298 849

C334 849 345 851 354 858

C364 866 365 883 355 894

L352 898

L352 898

C352 899 354 900 356 901

C363 905 366 911 366 922

C366 935 360 943 348 947

C342 949 339 949 312 950

C296 950 281 951 280 951

L277 951

L280 952

C282 953 289 954 295 956

C308 958 318 958 336 955

Z

M742 953

L745 951

L742 951

C737 950 725 950 725 951

L724 952

L727 952

L729 953

L729 954

L729 955

L734 955

C737 954 740 953 742 953

Z

M750 942

L751 942

L751 937

C751 934 751 930 751 929

C752 928 753 924 753 921

C754 918 755 914 757 913

C758 911 759 909 759 909

L759 908

L760 908

C762 908 766 905 769 900

L772 897

L771 896

C771 895 762 895 758 896

C753 898 747 903 747 907

C746 908 746 919 747 930

L747 950

L748 946

L749 942

L750 942

Z

M275 895

C275 874 274 855 274 853

L273 851

L272 856

C272 861 272 887 272 892

C273 893 273 905 273 920

L273 946

L274 940

C274 937 275 917 275 895

Z

M333 929

C340 927 343 921 340 914

C337 910 334 909 316 909

L299 909

L299 912

C300 914 300 919 300 923

L300 930

L314 930

C322 930 330 929 333 929

Z

M773 885

L772 878

L772 886

L772 895

L773 893

C773 892 773 888 773 885

Z

M332 888

C335 887 338 882 338 880

C338 876 335 872 332 871

C330 870 322 870 314 870

L299 870

L299 880

L299 890

L314 890

C326 890 330 890 332 888

Z

M830 811

C828 811 826 811 824 811

L822 812

L827 812

L833 812

L830 811

Z

M259 760

C265 756 268 752 268 746

C268 739 266 735 260 732

C257 731 254 730 243 730

L230 730

L230 746

L230 762

L242 762

C252 762 254 762 259 760

Z

M368 620

C368 591 368 589 364 586

C362 584 358 584 332 584

L303 584

L303 609

C304 637 304 638 309 643

C314 647 320 648 345 648

L368 648

L368 620

Z

M639 633

L639 619

L513 619

L387 619

L386 633

L386 648

L513 648

L639 648

L639 633

Z

M708 647

C714 645 719 640 721 634

C722 632 722 621 722 607

L722 584

L692 584

C663 584 663 584 660 587

C657 589 657 589 657 619

L657 648

L681 648

C695 648 706 648 708 647

Z

M334 558

C334 553 334 516 334 476

L335 403

L319 403

L304 403

L304 485

L304 567

L319 567

L334 567

L334 558

Z

M721 485

L721 403

L706 403

L691 404

L691 485

L690 567

L705 567

L721 567

L721 485

Z

M497 557

C497 556 498 532 497 531

C497 531 487 525 475 519

C451 505 446 502 446 501

C446 499 449 497 459 492

C464 489 475 484 483 479

C497 471 497 471 497 459

C497 447 496 446 495 445

C493 444 492 444 490 445

C482 450 458 463 434 477

C419 485 407 492 406 493

C404 496 403 505 405 508

C406 509 415 514 424 520

C434 525 444 531 447 533

C450 534 459 539 467 543

C474 547 483 552 487 554

C493 558 495 559 497 557

Z

M540 556

C543 555 549 551 556 548

C562 544 572 538 578 535

C584 532 597 524 606 519

C623 509 623 509 623 501

C623 493 623 493 615 488

C607 483 596 477 551 452

C543 447 536 444 535 444

L532 444

L532 446

C531 446 531 452 531 459

C531 472 529 470 549 480

C573 494 581 498 582 500

L583 501

L581 503

C580 504 576 507 571 509

C528 532 531 530 531 543

C531 559 532 560 540 556

Z

M529 299

L529 299

L527 300

C526 301 525 301 525 302

L525 302

L527 301

C528 300 529 300 529 299

Z

M565 255

L566 254

L566 253

C565 253 565 252 564 252

L563 252

L563 254

L562 256

L563 256

C563 256 564 256 565 255

Z

M475 203

C476 201 478 199 485 195

C490 192 494 188 494 188

L494 187

L487 191

C478 195 471 202 471 205

L471 207

L473 207

C474 207 475 205 475 203

Z

M397 949

C389 947 383 942 379 933

C377 928 376 927 376 902

C376 888 376 876 376 875

L376 874

L388 874

L400 875

L400 898

C400 913 401 921 402 923

C407 931 421 931 427 922

C428 920 429 917 429 897

L430 875

L441 875

L453 875

L453 912

C453 933 453 950 452 950

C452 950 447 950 441 950

L431 950

L430 946

L430 943

L425 946

C417 951 406 952 397 949

Z

M568 950

C558 948 547 939 542 928

C539 921 539 920 539 912

C539 900 541 893 549 885

C556 877 563 874 574 873

C584 873 588 874 594 878

L598 880

L598 863

L599 846

L609 845

C615 845 620 845 621 846

C622 846 622 859 622 897

C622 925 622 948 622 949

L622 950

L612 950

C602 950 600 949 600 945

L600 943

L600 943

C599 943 597 944 594 946

C587 951 579 952 568 950

Z

M592 927

C596 923 598 920 599 914

C600 900 590 890 576 893

C560 896 557 920 572 928

C578 931 586 930 592 927

Z

M664 950

C652 948 640 938 635 928

C633 924 633 920 632 914

C632 903 634 897 639 888

C653 868 691 868 705 888

C711 896 714 910 712 916

L711 919

L683 919

L656 918

L656 920

C656 920 658 923 660 924

C667 931 679 933 690 927

C696 924 697 925 704 932

L708 936

L707 938

C707 939 704 941 700 944

C691 950 677 952 664 950

Z

M676 904

L690 904

L689 901

C686 893 674 889 666 892

C662 894 656 900 656 902

L656 904

L657 904

C658 905 659 905 660 904

C661 904 668 904 676 904

Z

M467 949

C467 948 467 931 467 911

L468 875

L479 875

L490 875

L490 912

L490 950

L479 950

L467 950

L467 949

Z

M505 898

L506 846

L516 845

C523 845 528 845 528 846

C528 846 529 870 529 898

L529 950

L517 950

L505 950

L505 898

Z

M714 939

L715 936

L716 936

L716 937

L714 939

L712 942

L714 939

Z

M470 865

C458 858 463 841 477 841

C485 841 491 846 492 853

C493 863 480 871 470 865

Z

M307 836

C301 835 293 831 293 830

C292 828 301 814 303 813

C304 812 305 813 307 813

C312 816 317 815 321 813

C325 809 326 806 321 796

C314 780 297 740 296 737

L294 734

L295 734

C295 733 300 733 307 733

C320 733 317 730 330 760

L337 779

L339 776

C340 774 344 764 348 753

C356 734 356 734 367 733

C373 733 378 733 378 733

L379 734

L364 771

C347 812 342 821 338 826

C331 834 317 838 307 836

Z

M649 811

C631 809 616 799 607 785

C595 765 599 740 616 724

C624 716 630 713 641 710

C653 707 670 708 682 713

C687 716 697 723 697 724

C697 726 684 739 683 739

C682 739 680 737 676 735

C662 726 643 728 633 739

C628 746 626 751 626 759

C626 776 636 787 654 790

C659 790 669 789 673 786

C676 785 676 785 676 779

L676 772

L665 772

L655 772

L655 763

L655 754

L675 753

C687 753 697 753 697 754

C698 754 698 764 698 775

C698 800 699 797 686 804

C674 810 660 812 649 811

Z

M750 811

C734 809 724 801 717 788

C712 778 711 773 711 740

L712 711

L724 711

L736 711

L736 743

C737 778 737 777 743 784

C747 788 751 789 757 789

C765 789 771 786 774 780

C776 776 777 775 777 743

L778 711

L789 711

L801 711

L801 739

C803 778 801 787 790 798

C781 808 765 813 750 811

Z

M410 809

C409 809 409 791 409 770

L409 731

L394 731

L380 731

L379 720

L379 710

L422 710

L465 711

L465 720

C465 727 465 730 464 730

C463 731 456 731 448 731

L434 731

L434 770

L434 810

L422 810

C416 810 410 810 410 809

Z

M473 808

C473 807 473 784 473 758

L474 711

L485 710

C493 710 497 710 497 711

C498 712 498 721 498 732

L498 752

L504 747

C507 744 516 734 524 726

C538 710 538 710 552 710

L566 710

L566 711

C566 711 558 720 538 742

L526 754

L528 757

C529 758 536 768 545 779

C566 805 568 808 568 809

L568 810

L554 810

C541 810 541 810 528 794

C520 785 513 777 512 775

L509 772

L503 777

C498 783 498 783 498 796

L498 810

L486 810

L474 810

L473 808

Z

M334 363

C329 361 327 359 325 355

C324 351 324 350 325 346

C329 331 348 329 355 342

C359 350 357 357 350 362

C346 365 338 366 334 363

Z

M627 364

C614 358 614 341 626 335

C630 333 632 333 635 333

C644 335 649 341 649 349

C649 355 647 359 642 362

C638 365 631 366 627 364

Z

M677 364

C668 360 664 349 669 341

C677 330 693 331 698 344

C703 356 690 369 677 364

Z

M327 629

C321 625 319 622 320 615

C320 612 320 609 322 607

C324 604 331 600 335 600

C339 600 346 604 348 607

C349 609 350 612 351 614

C351 620 348 626 343 629

C339 632 331 632 327 629

Z

M685 631

C672 626 670 611 681 603

C691 595 707 605 706 618

C705 623 701 628 695 631

C691 632 690 632 685 631

Z

"/>

<path fill="#07c0f4" stroke="none" d="
M306 1023

L306 1022

L318 1023

C325 1023 331 1023 331 1024

L331 1024

L319 1024

L306 1024

L306 1023

Z

M368 1023

C385 1023 411 1023 427 1023

L457 1024

L398 1024

L339 1024

L368 1023

Z

M554 1023

C556 1023 559 1023 561 1023

L565 1024

L558 1024

L551 1024

L554 1023

Z

M605 1023

C622 1023 650 1023 667 1023

L699 1024

L636 1024

L574 1024

L605 1023

Z

M707 1023

C713 1022 715 1022 716 1023

L717 1024

L708 1024

L699 1024

L707 1023

Z

M403 950

C392 948 385 943 380 933

C377 927 377 927 377 901

L377 875

L388 875

L399 875

L399 897

C399 917 400 920 402 923

C407 933 422 932 428 922

C429 919 430 915 430 897

L431 875

L442 875

L453 875

L453 905

C453 922 453 939 452 943

L452 950

L442 950

C432 950 430 949 430 945

L430 943

L429 943

C429 943 428 944 427 944

C425 947 417 950 412 950

C410 950 405 950 403 950

Z

M276 949

C275 948 275 935 275 899

L276 851

L303 850

C332 850 339 851 348 855

C363 862 367 882 354 894

L351 898

L355 900

C364 906 368 918 365 931

C363 937 355 944 347 947

C340 949 337 949 308 950

C282 950 277 950 276 949

Z

M335 928

C340 926 341 925 341 919

C341 916 340 914 338 912

C335 909 335 909 317 909

L299 909

L299 920

L299 930

L315 930

C327 930 332 930 335 928

Z

M335 887

C339 883 339 878 336 874

C333 870 327 869 311 869

L299 869

L299 880

L299 890

L315 890

C331 890 331 890 335 887

Z

M468 949

C467 948 467 937 467 911

L468 875

L478 875

L489 875

L489 881

C490 894 490 948 489 949

C487 951 470 950 468 949

Z

M506 949

C505 948 505 935 505 897

L505 846

L517 846

L528 846

L528 897

L528 949

L524 949

C518 950 507 950 506 949

Z

M565 948

C554 945 548 939 542 928

C540 923 540 922 540 911

C540 901 540 900 543 894

C549 882 560 874 573 873

C581 873 589 874 594 878

C595 879 597 880 598 880

L598 880

L598 863

L599 847

L610 847

L622 847

L622 896

C622 923 622 946 622 948

L621 950

L611 949

C601 949 600 948 600 944

L600 942

L599 942

C599 942 597 943 595 945

C594 946 590 948 588 949

C583 950 571 950 565 948

Z

M585 930

C590 929 596 924 598 919

C599 915 599 907 598 903

C594 894 582 889 572 894

C564 898 560 909 563 918

C565 923 571 929 575 930

C576 930 578 930 579 931

C580 931 581 931 585 930

Z

M660 948

C638 941 627 920 634 900

C637 892 642 885 647 881

C664 869 690 871 703 886

C709 892 711 899 711 909

L712 918

L683 918

L655 918

L655 919

C655 921 662 928 667 930

C673 932 684 931 690 928

C695 925 695 925 698 927

C699 928 702 930 704 932

L707 936

L706 938

C704 941 695 947 689 948

C680 951 667 950 660 948

Z

M689 904

C690 904 689 901 688 899

C685 894 680 891 672 891

C666 891 661 893 658 899

L655 903

L655 904

C656 905 689 905 689 904

Z

M723 949

C723 948 723 931 723 911

L724 875

L734 875

L745 875

L745 878

L746 882

L750 879

C754 876 764 873 768 873

L771 874

L771 883

L771 893

L763 895

C756 896 750 899 748 903

C747 905 746 912 746 928

L746 950

L735 950

L724 950

L723 949

Z

M471 865

C467 863 464 858 464 853

C464 845 473 839 482 842

C496 846 494 866 479 867

C476 867 473 867 471 865

Z

M304 835

C298 833 293 830 293 829

C293 828 301 815 303 813

C303 813 305 813 308 814

C315 817 318 816 322 812

C327 807 327 807 312 773

C301 749 295 734 295 734

L295 733

L307 733

L318 734

L327 756

L337 778

L337 778

L338 778

L347 757

C352 745 356 735 356 734

C357 733 361 733 368 733

L378 733

L378 735

C378 736 376 742 367 762

C365 767 360 779 356 789

C342 822 339 827 329 833

C322 836 310 837 304 835

Z

M640 809

C630 806 624 803 616 795

C608 787 603 777 601 766

C599 752 604 735 615 725

C632 708 656 704 680 713

C686 715 697 723 697 725

C697 725 694 729 690 732

L683 739

L680 737

C671 731 666 730 657 730

C649 730 647 730 642 732

C637 735 630 742 627 747

C625 752 624 763 626 769

C631 781 641 789 655 790

C662 790 671 789 675 786

C675 786 676 783 676 779

L677 773

L666 772

L655 772

L655 763

L655 755

L676 755

L698 755

L698 775

C698 799 699 798 687 803

C677 808 669 810 658 811

C650 811 646 811 640 809

Z

M748 810

C731 807 718 795 714 779

C712 774 712 768 712 742

L713 711

L724 711

L736 711

L736 743

C736 771 737 776 738 779

C746 793 769 793 775 779

C777 775 777 772 777 743

L777 711

L779 711

C781 710 798 710 800 711

C801 712 801 718 801 746

C800 778 800 780 798 785

C793 797 783 806 770 809

C764 811 754 811 748 810

Z

M205 809

C205 808 205 786 205 759

L206 711

L230 710

C245 710 257 710 261 711

C274 713 284 720 289 730

C291 735 292 737 292 746

C292 754 291 756 289 761

C284 770 275 777 264 780

C262 781 253 782 245 782

L230 783

L230 796

L230 810

L218 810

L206 810

L205 809

Z

M259 760

C272 754 272 737 259 732

C255 730 252 730 242 730

L230 731

L230 732

C230 732 230 740 230 748

L230 763

L242 763

C250 762 256 761 259 760

Z

M410 809

C410 808 410 790 410 769

L410 731

L397 731

C390 731 383 731 382 730

L379 729

L379 720

L380 711

L422 710

L464 710

L465 712

C465 714 465 718 465 722

L465 730

L454 730

C448 730 441 731 438 731

L433 731

L433 769

C433 791 433 808 433 809

C432 810 427 810 421 810

L411 810

L410 809

Z

M474 809

C473 807 473 716 474 712

L474 710

L485 710

L497 711

L497 732

L498 753

L518 732

C539 711 539 711 552 710

L565 710

L565 711

C565 712 551 728 535 744

C530 749 526 754 526 754

C526 755 528 757 530 760

C542 775 567 807 567 809

L567 810

L555 810

C549 810 542 810 542 809

C541 809 533 801 525 790

C517 780 510 772 509 772

C509 772 506 775 503 778

C497 784 497 784 497 797

L497 810

L486 810

C478 810 475 810 474 809

Z

M817 808

C817 807 817 785 817 759

L817 711

L828 711

L840 711

L840 760

L841 810

L829 810

L818 810

L817 808

Z

M172 677

C171 676 170 674 170 673

L169 672

L171 675

C173 676 174 678 174 678

L174 679

L174 679

C174 679 173 678 172 677

Z

M311 664

C297 659 288 648 286 634

C286 631 286 560 286 477

C287 326 287 326 289 320

C293 313 300 305 306 302

C316 297 316 297 398 297

L475 297

L475 298

C475 298 474 300 473 301

C472 303 469 307 468 310

C465 315 465 315 392 315

C320 316 320 316 315 318

C313 319 309 322 308 325

C305 329 305 329 304 357

L304 385

L513 385

L721 385

L721 358

C721 330 721 327 715 322

C714 320 711 318 709 317

C705 315 700 315 618 315

L532 315

L532 314

C532 313 533 312 535 311

C536 310 542 306 548 303

C558 297 558 297 633 297

C709 298 709 298 714 300

C721 303 728 308 732 315

C739 325 739 313 739 484

C739 639 739 639 736 644

C732 653 728 657 719 662

C712 666 712 666 514 666

C328 666 316 666 311 664

Z

M369 619

C368 588 368 587 362 585

C360 583 355 583 331 583

L304 584

L303 608

C303 622 303 633 304 635

C305 639 311 645 316 647

C319 648 326 648 344 648

L369 648

L369 619

Z

M639 633

L639 618

L513 618

L386 618

L386 633

L386 648

L513 648

L639 648

L639 633

Z

M714 645

C722 640 722 637 722 608

L722 584

L695 583

C664 583 661 583 658 588

C656 591 656 594 656 619

C656 634 656 647 657 647

C657 648 669 648 684 648

C710 648 710 648 714 645

Z

M335 485

L335 403

L320 403

L304 403

L304 485

C304 530 304 567 305 567

C305 568 312 568 320 568

L335 568

L335 485

Z

M721 486

L721 403

L720 403

C720 403 713 403 705 403

L690 403

L690 485

C690 530 690 567 691 567

C691 568 698 568 706 568

L721 568

L721 486

Z

M497 557

C498 556 498 551 498 543

C498 531 498 531 474 517

C460 510 449 503 448 503

C446 500 447 499 457 494

C462 491 473 485 482 480

C498 471 498 471 498 460

C498 448 498 445 495 444

C493 443 491 444 483 449

C477 452 458 463 441 472

C423 482 407 491 406 492

C404 494 404 495 404 500

C404 504 405 507 405 508

C406 510 418 516 446 532

C480 551 493 558 494 558

C495 558 496 557 497 557

Z

M544 554

C548 552 555 548 562 545

C568 541 579 535 587 530

C609 518 622 510 623 508

C625 505 624 496 622 493

C620 490 605 481 566 460

C535 443 535 443 533 444

C531 445 531 446 531 458

C531 471 531 471 535 473

C537 474 548 480 560 487

C575 495 582 499 582 501

L582 503

L567 511

C558 516 547 522 541 525

C531 531 531 531 531 543

C531 560 532 561 544 554

Z

M143 638

C138 633 131 629 123 627

C119 626 118 626 114 628

L110 630

L109 630

L109 629

L113 627

L116 625

L115 624

L114 623

L111 624

C109 625 106 627 104 628

L101 630

L100 628

C100 628 101 626 102 625

L103 623

L101 624

C99 625 97 625 97 625

L96 625

L94 620

L93 614

L92 614

L91 614

L90 616

L90 619

L89 614

L89 610

L88 610

C87 610 86 610 85 611

L83 611

L83 609

L83 607

L80 605

C78 605 75 604 74 604

C73 604 71 603 69 602

C67 600 66 600 63 600

C59 601 48 598 44 595

L42 594

L42 594

C41 594 41 597 40 599

C39 601 37 604 36 605

C34 606 34 607 34 610

L35 614

L32 612

L29 611

L28 612

C28 613 26 614 24 615

L20 617

L18 615

C17 614 15 613 14 613

C12 613 8 609 8 607

C8 607 7 606 7 605

C4 603 5 597 8 585

C9 578 11 573 13 571

C14 570 15 568 15 567

C15 566 16 564 17 562

C20 554 21 550 21 540

C22 534 22 527 23 525

C24 523 27 508 31 494

C34 479 38 465 38 463

C39 461 40 456 41 451

C42 446 45 435 47 427

C49 418 53 403 55 395

C57 386 64 359 69 336

C75 313 80 293 80 292

L79 290

L80 290

L81 291

L83 282

C84 277 85 272 85 270

L86 266

L86 267

L87 267

L87 264

C88 262 88 261 87 260

L87 259

L88 259

L89 260

L93 243

C95 234 97 226 96 225

L96 224

L97 224

L98 225

L98 224

C98 220 108 202 114 195

L121 187

L120 186

L120 185

L121 185

C121 185 125 183 129 180

L137 174

L136 173

L136 172

L137 172

C137 173 141 171 144 169

L151 166

L150 165

L150 164

L151 164

C151 165 153 164 155 163

L159 162

L158 161

L158 160

L159 160

C159 161 161 161 161 160

L163 160

L162 159

L162 158

L164 159

L165 159

L165 158

L164 157

L165 157

C166 158 175 154 188 147

L210 137

L209 136

L209 135

L210 135

C210 136 212 135 214 134

L218 133

L217 132

L217 131

L218 131

C218 132 226 129 235 124

L251 117

L250 116

L250 115

L251 115

C251 116 254 115 256 114

L261 112

L260 111

L260 110

L261 110

C262 111 331 77 331 76

L331 75

L332 76

L333 76

L333 75

L333 74

L334 74

C335 75 351 67 401 43

L422 33

L421 32

L421 31

L422 31

C422 32 427 30 432 27

L442 23

L441 22

L441 21

L443 22

L444 22

L444 21

L443 20

L444 20

C444 21 449 19 454 16

C467 10 479 6 487 4

L494 3

L494 1

L494 0

L510 0

L526 0

L526 1

L526 3

L534 4

C538 5 543 5 544 5

L547 6

L546 6

L546 6

L551 8

C553 9 556 10 556 9

L557 9

L557 10

L556 11

L567 16

C573 19 579 21 579 20

L580 20

L579 21

L579 22

L580 22

L582 21

L582 22

L581 23

L583 23

C583 24 585 24 585 23

L586 23

L586 24

L585 25

L598 31

C605 35 611 37 612 36

L613 36

L613 37

L612 38

L619 41

C622 43 626 44 626 43

L628 43

L627 44

L626 44

L643 53

C652 57 660 61 661 61

L662 60

L661 61

L661 62

L662 62

L664 61

L664 62

L663 63

L668 65

C670 66 673 67 673 66

L674 66

L674 67

L673 68

L704 83

C721 91 735 98 736 97

L737 97

L737 98

C737 99 745 103 746 102

L748 102

L747 103

L746 103

L761 111

C769 115 777 118 777 117

L778 117

L778 118

L777 119

L782 121

C785 123 788 124 789 123

L790 123

L790 124

L789 125

L813 136

C826 143 838 148 838 147

L839 147

L839 148

L838 149

L860 159

C883 171 889 175 895 179

L898 182

L899 181

L901 181

L900 181

L899 182

L907 191

C911 196 915 199 915 199

L916 199

L916 200

C915 200 916 203 918 206

C922 212 926 222 928 232

L930 241

L931 240

L932 240

L931 242

C931 243 934 256 938 272

C942 287 946 302 947 306

C947 309 949 315 950 318

C951 322 953 328 953 332

L955 340

L956 339

L957 339

L956 340

C956 341 956 344 957 346

C958 349 959 352 959 355

C960 358 963 372 968 390

L969 394

L970 393

L971 393

L971 394

C970 395 970 399 976 423

C978 431 983 449 986 463

C989 476 997 507 1003 532

C1009 556 1014 578 1015 579

C1016 584 1014 590 1010 595

C1008 597 1006 600 1005 601

C1004 602 1002 603 1001 604

C999 604 997 603 994 600

C990 596 990 596 989 588

C989 581 989 579 986 574

C985 570 982 566 981 565

C975 559 964 544 963 540

C961 532 952 526 944 529

C942 530 937 531 932 531

L925 531

L925 530

C925 530 924 529 922 528

C921 527 919 525 918 523

C917 520 913 518 911 519

L910 520

L910 518

L909 516

L906 516

L904 516

L903 518

L903 519

L901 519

C899 518 897 520 897 522

C897 523 896 525 895 527

C894 528 894 531 894 533

L895 537

L893 538

C890 540 890 550 893 562

C894 564 894 567 894 568

L894 570

L893 570

C893 569 892 564 890 558

C888 552 886 542 885 538

C880 520 860 443 846 388

C843 375 836 348 831 329

C820 284 819 282 816 278

C811 268 814 270 681 203

C624 175 584 154 584 153

C583 152 581 151 580 150

C578 150 576 148 575 146

C573 145 572 143 572 143

L571 143

L571 146

L571 148

L570 148

C568 148 562 145 560 144

C559 143 558 142 557 141

L555 140

L558 143

C560 146 561 148 561 151

C561 158 556 162 546 165

C538 167 514 177 504 182

C483 192 471 201 471 205

C472 210 485 214 509 217

C545 222 551 223 559 226

C570 229 577 232 582 237

C596 250 591 267 570 280

C566 281 556 286 548 290

C523 301 511 309 505 319

C500 327 501 333 513 343

C517 346 520 350 521 352

C521 354 519 361 516 363

C514 363 512 364 509 364

C502 364 490 353 483 341

C481 336 481 334 481 327

C481 319 481 317 483 312

C485 308 489 303 492 299

C503 287 514 281 545 267

C554 263 564 258 565 257

L567 254

L566 252

C562 248 551 245 523 241

C499 239 483 236 476 233

C453 226 443 211 450 195

C457 181 477 168 523 150

C536 145 548 140 550 140

L552 139

L546 136

C543 135 536 131 530 128

C518 123 511 122 503 124

C497 126 236 256 223 264

C215 269 210 274 207 280

C204 287 194 324 153 487

C147 511 139 542 135 556

C126 592 125 596 125 600

C125 606 128 613 133 620

C135 624 139 629 141 631

C142 633 145 637 146 639

L148 642

L148 642

L147 643

L143 638

Z

M1021 631

C1021 631 1021 627 1022 625

C1023 621 1023 616 1023 609

L1022 599

L1023 599

L1024 599

L1024 616

L1024 633

L1023 633

L1022 633

L1021 631

Z

M0 619

L0 606

L1 606

L2 606

L2 615

C2 620 2 626 2 627

L3 630

L1 631

L0 631

L0 619

Z

M333 363

C319 355 325 334 341 334

C352 334 360 345 355 355

C351 364 341 367 333 363

Z

M629 364

C624 363 620 359 619 355

C617 350 617 346 620 341

C628 328 649 334 649 350

C649 359 638 367 629 364

Z

M676 363

C661 355 667 334 683 334

C690 334 694 337 697 342

C700 347 700 353 697 357

C692 365 684 367 676 363

Z

M328 629

C318 624 317 609 327 603

C334 599 344 601 348 608

C356 621 342 636 328 629

Z

M682 629

C677 626 674 619 674 614

C676 606 681 601 690 601

C699 601 705 607 705 617

C705 621 704 622 702 625

C697 631 689 633 682 629

Z

"/>

<path fill="#9360d1" stroke="none" d="
M306 1023

L306 1022

L318 1023

C325 1023 331 1023 331 1024

L331 1024

L319 1024

L306 1024

L306 1023

Z

M368 1023

C385 1023 411 1023 427 1023

L457 1024

L398 1024

L339 1024

L368 1023

Z

M554 1023

C556 1023 559 1023 561 1023

L565 1024

L558 1024

L551 1024

L554 1023

Z

M605 1023

C622 1023 650 1023 667 1023

L699 1024

L636 1024

L574 1024

L605 1023

Z

M707 1023

C713 1022 715 1022 716 1023

L717 1024

L708 1024

L699 1024

L707 1023

Z

M403 950

C392 948 385 943 380 933

C377 927 377 927 377 901

L377 875

L388 875

L399 875

L399 897

C399 917 400 920 402 923

C407 933 422 932 428 922

C429 919 430 915 430 897

L431 875

L442 875

L453 875

L453 905

C453 922 453 939 452 943

L452 950

L442 950

C432 950 430 949 430 945

L430 943

L429 943

C429 943 428 944 427 944

C425 947 417 950 412 950

C410 950 405 950 403 950

Z

M276 949

C275 948 275 935 275 899

L276 851

L303 850

C332 850 339 851 348 855

C363 862 367 882 354 894

L351 898

L355 900

C364 906 368 918 365 931

C363 937 355 944 347 947

C340 949 337 949 308 950

C282 950 277 950 276 949

Z

M335 928

C340 926 341 925 341 919

C341 916 340 914 338 912

C335 909 335 909 317 909

L299 909

L299 920

L299 930

L315 930

C327 930 332 930 335 928

Z

M335 887

C339 883 339 878 336 874

C333 870 327 869 311 869

L299 869

L299 880

L299 890

L315 890

C331 890 331 890 335 887

Z

M468 949

C467 948 467 937 467 911

L468 875

L478 875

L489 875

L489 881

C490 894 490 948 489 949

C487 951 470 950 468 949

Z

M506 949

C505 948 505 935 505 897

L505 846

L517 846

L528 846

L528 897

L528 949

L524 949

C518 950 507 950 506 949

Z

M565 948

C554 945 548 939 542 928

C540 923 540 922 540 911

C540 901 540 900 543 894

C549 882 560 874 573 873

C581 873 589 874 594 878

C595 879 597 880 598 880

L598 880

L598 863

L599 847

L610 847

L622 847

L622 896

C622 923 622 946 622 948

L621 950

L611 949

C601 949 600 948 600 944

L600 942

L599 942

C599 942 597 943 595 945

C594 946 590 948 588 949

C583 950 571 950 565 948

Z

M585 930

C590 929 596 924 598 919

C599 915 599 907 598 903

C594 894 582 889 572 894

C564 898 560 909 563 918

C565 923 571 929 575 930

C576 930 578 930 579 931

C580 931 581 931 585 930

Z

M660 948

C638 941 627 920 634 900

C637 892 642 885 647 881

C664 869 690 871 703 886

C709 892 711 899 711 909

L712 918

L683 918

L655 918

L655 919

C655 921 662 928 667 930

C673 932 684 931 690 928

C695 925 695 925 698 927

C699 928 702 930 704 932

L707 936

L706 938

C704 941 695 947 689 948

C680 951 667 950 660 948

Z

M689 904

C690 904 689 901 688 899

C685 894 680 891 672 891

C666 891 661 893 658 899

L655 903

L655 904

C656 905 689 905 689 904

Z

M723 949

C723 948 723 931 723 911

L724 875

L734 875

L745 875

L745 878

L746 882

L750 879

C754 876 764 873 768 873

L771 874

L771 883

L771 893

L763 895

C756 896 750 899 748 903

C747 905 746 912 746 928

L746 950

L735 950

L724 950

L723 949

Z

M471 865

C467 863 464 858 464 853

C464 845 473 839 482 842

C496 846 494 866 479 867

C476 867 473 867 471 865

Z

M304 835

C298 833 293 830 293 829

C293 828 301 815 303 813

C303 813 305 813 308 814

C315 817 318 816 322 812

C327 807 327 807 312 773

C301 749 295 734 295 734

L295 733

L307 733

L318 734

L327 756

L337 778

L337 778

L338 778

L347 757

C352 745 356 735 356 734

C357 733 361 733 368 733

L378 733

L378 735

C378 736 376 742 367 762

C365 767 360 779 356 789

C342 822 339 827 329 833

C322 836 310 837 304 835

Z

M640 809

C630 806 624 803 616 795

C608 787 603 777 601 766

C599 752 604 735 615 725

C632 708 656 704 680 713

C686 715 697 723 697 725

C697 725 694 729 690 732

L683 739

L680 737

C671 731 666 730 657 730

C649 730 647 730 642 732

C637 735 630 742 627 747

C625 752 624 763 626 769

C631 781 641 789 655 790

C662 790 671 789 675 786

C675 786 676 783 676 779

L677 773

L666 772

L655 772

L655 763

L655 755

L676 755

L698 755

L698 775

C698 799 699 798 687 803

C677 808 669 810 658 811

C650 811 646 811 640 809

Z

M748 810

C731 807 718 795 714 779

C712 774 712 768 712 742

L713 711

L724 711

L736 711

L736 743

C736 771 737 776 738 779

C746 793 769 793 775 779

C777 775 777 772 777 743

L777 711

L779 711

C781 710 798 710 800 711

C801 712 801 718 801 746

C800 778 800 780 798 785

C793 797 783 806 770 809

C764 811 754 811 748 810

Z

M205 809

C205 808 205 786 205 759

L206 711

L230 710

C245 710 257 710 261 711

C274 713 284 720 289 730

C291 735 292 737 292 746

C292 754 291 756 289 761

C284 770 275 777 264 780

C262 781 253 782 245 782

L230 783

L230 796

L230 810

L218 810

L206 810

L205 809

Z

M259 760

C272 754 272 737 259 732

C255 730 252 730 242 730

L230 731

L230 732

C230 732 230 740 230 748

L230 763

L242 763

C250 762 256 761 259 760

Z

M410 809

C410 808 410 790 410 769

L410 731

L397 731

C390 731 383 731 382 730

L379 729

L379 720

L380 711

L422 710

L464 710

L465 712

C465 714 465 718 465 722

L465 730

L454 730

C448 730 441 731 438 731

L433 731

L433 769

C433 791 433 808 433 809

C432 810 427 810 421 810

L411 810

L410 809

Z

M474 809

C473 807 473 716 474 712

L474 710

L485 710

L497 711

L497 732

L498 753

L518 732

C539 711 539 711 552 710

L565 710

L565 711

C565 712 551 728 535 744

C530 749 526 754 526 754

C526 755 528 757 530 760

C542 775 567 807 567 809

L567 810

L555 810

C549 810 542 810 542 809

C541 809 533 801 525 790

C517 780 510 772 509 772

C509 772 506 775 503 778

C497 784 497 784 497 797

L497 810

L486 810

C478 810 475 810 474 809

Z

M817 808

C817 807 817 785 817 759

L817 711

L828 711

L840 711

L840 760

L841 810

L829 810

L818 810

L817 808

Z

M172 677

C171 676 170 674 170 673

L169 672

L171 675

C173 676 174 678 174 678

L174 679

L174 679

C174 679 173 678 172 677

Z

M311 664

C297 659 288 648 286 634

C286 631 286 560 286 477

C287 326 287 326 289 320

C293 313 300 305 306 302

C316 297 316 297 398 297

L475 297

L475 298

C475 298 474 300 473 301

C472 303 469 307 468 310

C465 315 465 315 392 315

C320 316 320 316 315 318

C313 319 309 322 308 325

C305 329 305 329 304 357

L304 385

L513 385

L721 385

L721 358

C721 330 721 327 715 322

C714 320 711 318 709 317

C705 315 700 315 618 315

L532 315

L532 314

C532 313 533 312 535 311

C536 310 542 306 548 303

C558 297 558 297 633 297

C709 298 709 298 714 300

C721 303 728 308 732 315

C739 325 739 313 739 484

C739 639 739 639 736 644

C732 653 728 657 719 662

C712 666 712 666 514 666

C328 666 316 666 311 664

Z

M369 619

C368 588 368 587 362 585

C360 583 355 583 331 583

L304 584

L303 608

C303 622 303 633 304 635

C305 639 311 645 316 647

C319 648 326 648 344 648

L369 648

L369 619

Z

M639 633

L639 618

L513 618

L386 618

L386 633

L386 648

L513 648

L639 648

L639 633

Z

M714 645

C722 640 722 637 722 608

L722 584

L695 583

C664 583 661 583 658 588

C656 591 656 594 656 619

C656 634 656 647 657 647

C657 648 669 648 684 648

C710 648 710 648 714 645

Z

M335 485

L335 403

L320 403

L304 403

L304 485

C304 530 304 567 305 567

C305 568 312 568 320 568

L335 568

L335 485

Z

M721 486

L721 403

L720 403

C720 403 713 403 705 403

L690 403

L690 485

C690 530 690 567 691 567

C691 568 698 568 706 568

L721 568

L721 486

Z

M497 557

C498 556 498 551 498 543

C498 531 498 531 474 517

C460 510 449 503 448 503

C446 500 447 499 457 494

C462 491 473 485 482 480

C498 471 498 471 498 460

C498 448 498 445 495 444

C493 443 491 444 483 449

C477 452 458 463 441 472

C423 482 407 491 406 492

C404 494 404 495 404 500

C404 504 405 507 405 508

C406 510 418 516 446 532

C480 551 493 558 494 558

C495 558 496 557 497 557

Z

M544 554

C548 552 555 548 562 545

C568 541 579 535 587 530

C609 518 622 510 623 508

C625 505 624 496 622 493

C620 490 605 481 566 460

C535 443 535 443 533 444

C531 445 531 446 531 458

C531 471 531 471 535 473

C537 474 548 480 560 487

C575 495 582 499 582 501

L582 503

L567 511

C558 516 547 522 541 525

C531 531 531 531 531 543

C531 560 532 561 544 554

Z

M143 638

C138 633 131 629 123 627

C119 626 118 626 114 628

L110 630

L109 630

L109 629

L113 627

L116 625

L115 624

L114 623

L111 624

C109 625 106 627 104 628

L101 630

L100 628

C100 628 101 626 102 625

L103 623

L101 624

C99 625 97 625 97 625

L96 625

L94 620

L93 614

L92 614

L91 614

L90 616

L90 619

L89 614

L89 610

L88 610

C87 610 86 610 85 611

L83 611

L83 609

L83 607

L80 605

C78 605 75 604 74 604

C73 604 71 603 69 602

C67 600 66 600 63 600

C59 601 48 598 44 595

L42 594

L42 594

C41 594 41 597 40 599

C39 601 37 604 36 605

C34 606 34 607 34 610

L35 614

L32 612

L29 611

L28 612

C28 613 26 614 24 615

L20 617

L18 615

C17 614 15 613 14 613

C12 613 8 609 8 607

C8 607 7 606 7 605

C4 603 5 597 8 585

C9 578 11 573 13 571

C14 570 15 568 15 567

C15 566 16 564 17 562

C20 554 21 550 21 540

C22 534 22 527 23 525

C24 523 27 508 31 494

C34 479 38 465 38 463

C39 461 40 456 41 451

C42 446 45 435 47 427

C49 418 53 403 55 395

C57 386 64 359 69 336

C75 313 80 293 80 292

L79 290

L80 290

L81 291

L83 282

C84 277 85 272 85 270

L86 266

L86 267

L87 267

L87 264

C88 262 88 261 87 260

L87 259

L88 259

L89 260

L93 243

C95 234 97 226 96 225

L96 224

L97 224

L98 225

L98 224

C98 220 108 202 114 195

L121 187

L120 186

L120 185

L121 185

C121 185 125 183 129 180

L137 174

L136 173

L136 172

L137 172

C137 173 141 171 144 169

L151 166

L150 165

L150 164

L151 164

C151 165 153 164 155 163

L159 162

L158 161

L158 160

L159 160

C159 161 161 161 161 160

L163 160

L162 159

L162 158

L164 159

L165 159

L165 158

L164 157

L165 157

C166 158 175 154 188 147

L210 137

L209 136

L209 135

L210 135

C210 136 212 135 214 134

L218 133

L217 132

L217 131

L218 131

C218 132 226 129 235 124

L251 117

L250 116

L250 115

L251 115

C251 116 254 115 256 114

L261 112

L260 111

L260 110

L261 110

C262 111 331 77 331 76

L331 75

L332 76

L333 76

L333 75

L333 74

L334 74

C335 75 351 67 401 43

L422 33

L421 32

L421 31

L422 31

C422 32 427 30 432 27

L442 23

L441 22

L441 21

L443 22

L444 22

L444 21

L443 20

L444 20

C444 21 449 19 454 16

C467 10 479 6 487 4

L494 3

L494 1

L494 0

L510 0

L526 0

L526 1

L526 3

L534 4

C538 5 543 5 544 5

L547 6

L546 6

L546 6

L551 8

C553 9 556 10 556 9

L557 9

L557 10

L556 11

L567 16

C573 19 579 21 579 20

L580 20

L579 21

L579 22

L580 22

L582 21

L582 22

L581 23

L583 23

C583 24 585 24 585 23

L586 23

L586 24

L585 25

L598 31

C605 35 611 37 612 36

L613 36

L613 37

L612 38

L619 41

C622 43 626 44 626 43

L628 43

L627 44

L626 44

L643 53

C652 57 660 61 661 61

L662 60

L661 61

L661 62

L662 62

L664 61

L664 62

L663 63

L668 65

C670 66 673 67 673 66

L674 66

L674 67

L673 68

L704 83

C721 91 735 98 736 97

L737 97

L737 98

C737 99 745 103 746 102

L748 102

L747 103

L746 103

L761 111

C769 115 777 118 777 117

L778 117

L778 118

L777 119

L782 121

C785 123 788 124 789 123

L790 123

L790 124

L789 125

L813 136

C826 143 838 148 838 147

L839 147

L839 148

L838 149

L860 159

C883 171 889 175 895 179

L898 182

L899 181

L901 181

L900 181

L899 182

L907 191

C911 196 915 199 915 199

L916 199

L916 200

C915 200 916 203 918 206

C922 212 926 222 928 232

L930 241

L931 240

L932 240

L931 242

C931 243 934 256 938 272

C942 287 946 302 947 306

C947 309 949 315 950 318

C951 322 953 328 953 332

L955 340

L956 339

L957 339

L956 340

C956 341 956 344 957 346

C958 349 959 352 959 355

C960 358 963 372 968 390

L969 394

L970 393

L971 393

L971 394

C970 395 970 399 976 423

C978 431 983 449 986 463

C989 476 997 507 1003 532

C1009 556 1014 578 1015 579

C1016 584 1014 590 1010 595

C1008 597 1006 600 1005 601

C1004 602 1002 603 1001 604

C999 604 997 603 994 600

C990 596 990 596 989 588

C989 581 989 579 986 574

C985 570 982 566 981 565

C975 559 964 544 963 540

C961 532 952 526 944 529

C942 530 937 531 932 531

L925 531

L925 530

C925 530 924 529 922 528

C921 527 919 525 918 523

C917 520 913 518 911 519

L910 520

L910 518

L909 516

L906 516

L904 516

L903 518

L903 519

L901 519

C899 518 897 520 897 522

C897 523 896 525 895 527

C894 528 894 531 894 533

L895 537

L893 538

C890 540 890 550 893 562

C894 564 894 567 894 568

L894 570

L893 570

C893 569 892 564 890 558

C888 552 886 542 885 538

C880 520 860 443 846 388

C843 375 836 348 831 329

C821 288 819 283 817 279

C815 275 810 269 806 266

C803 265 752 239 693 209

C633 179 583 154 583 153

L583 152

L592 148

C598 146 604 143 605 142

C609 139 609 138 609 134

C609 129 609 128 606 125

C604 123 601 122 600 122

C597 122 586 126 579 130

C573 132 572 134 571 142

L571 148

L570 148

C568 148 562 145 559 143

C557 141 555 140 555 140

C554 140 547 137 539 133

C531 129 523 125 521 124

C516 123 509 123 502 125

C497 126 235 257 223 264

C215 269 210 274 207 280

C204 287 194 324 153 487

C147 511 139 542 135 556

C126 592 125 596 125 600

C125 606 128 613 133 620

C135 624 139 629 141 631

C142 633 145 637 146 639

L148 642

L148 642

L147 643

L143 638

Z

M1021 631

C1021 631 1021 627 1022 625

C1023 621 1023 616 1023 609

L1022 599

L1023 599

L1024 599

L1024 616

L1024 633

L1023 633

L1022 633

L1021 631

Z

M0 619

L0 606

L1 606

L2 606

L2 615

C2 620 2 626 2 627

L3 630

L1 631

L0 631

L0 619

Z

M333 363

C319 355 325 334 341 334

C352 334 360 345 355 355

C351 364 341 367 333 363

Z

M629 364

C624 363 620 359 619 355

C617 350 617 346 620 341

C628 328 649 334 649 350

C649 359 638 367 629 364

Z

M676 363

C661 355 667 334 683 334

C690 334 694 337 697 342

C700 347 700 353 697 357

C692 365 684 367 676 363

Z

M328 629

C318 624 317 609 327 603

C334 599 344 601 348 608

C356 621 342 636 328 629

Z

M682 629

C677 626 674 619 674 614

C676 606 681 601 690 601

C699 601 705 607 705 617

C705 621 704 622 702 625

C697 631 689 633 682 629

Z

"/>

<path fill="#ffff00" stroke="none" d="
M402 949

C391 947 385 942 381 933

C378 927 378 927 378 901

L378 876

L388 876

L398 876

L398 898

C399 917 399 920 401 923

C404 928 407 930 414 930

C419 930 420 930 423 928

C430 923 430 921 431 898

C431 886 431 876 431 876

L431 875

L441 875

L452 876

L452 912

L452 949

L444 949

C439 949 434 949 433 949

L431 948

L431 944

L431 941

L430 941

C430 941 429 942 428 943

C424 947 408 951 402 949

Z

M668 949

C657 947 650 944 643 936

C631 925 630 905 640 890

C646 881 656 875 670 874

C694 873 712 889 711 911

L711 917

L683 917

L655 918

L654 919

C654 919 656 922 659 925

C664 931 669 932 679 932

C684 931 687 930 691 929

C696 926 696 926 702 932

C704 934 706 936 706 937

C706 939 697 945 691 947

C683 949 675 950 668 949

Z

M691 905

L691 904

L689 899

C682 886 660 888 655 902

L654 904

L655 905

C657 906 690 906 691 905

Z

M277 948

C276 948 276 926 276 899

L276 851

L304 851

C335 851 342 852 350 857

C353 859 356 862 358 864

C360 868 360 869 360 876

C360 885 358 890 353 894

C351 896 350 897 350 898

C350 898 352 900 354 901

C357 902 360 905 361 908

C365 913 366 924 364 931

C361 938 354 943 346 946

C340 948 337 948 308 949

C291 949 277 949 277 948

Z

M336 929

C341 927 342 925 342 919

C342 916 341 914 339 912

C336 909 336 909 317 909

L299 909

L298 918

C298 924 298 929 298 930

L299 931

L315 931

C329 931 332 931 336 929

Z

M333 889

C340 885 341 876 334 871

C331 869 320 868 307 868

L299 869

L298 878

C298 884 298 889 298 890

L299 891

L315 891

C327 891 331 891 333 889

Z

M468 948

C468 947 468 931 468 911

L469 876

L479 876

L489 876

L489 912

L489 949

L479 949

L469 949

L468 948

Z

M507 948

C506 948 506 925 506 897

L506 847

L517 847

L527 847

L527 898

L527 949

L517 949

C512 949 507 949 507 948

Z

M564 947

C549 941 540 928 540 913

C540 901 543 893 549 885

C560 874 582 870 594 879

C596 881 598 882 598 882

L599 882

L599 864

L599 847

L610 847

L621 848

L621 898

L621 948

L620 949

C619 949 614 949 610 948

L602 948

L601 944

L601 941

L600 941

C599 941 597 942 595 944

C594 945 590 947 588 948

C583 950 569 949 564 947

Z

M591 928

C599 923 602 912 599 903

C596 895 586 890 578 891

C561 894 555 915 568 926

C570 928 573 930 574 930

C580 932 581 932 584 931

C585 931 588 930 591 928

Z

M724 948

C724 947 724 931 724 911

L725 876

L734 876

L744 876

L744 879

L744 883

L745 883

C746 883 748 882 750 880

C754 877 762 874 767 874

L770 874

L770 883

L770 893

L764 893

C757 894 754 896 751 899

C746 904 746 904 745 927

L745 949

L735 949

L725 949

L724 948

Z

M472 865

C468 863 465 858 465 854

C465 849 467 846 471 843

C478 840 487 843 490 851

C491 854 491 855 490 858

C487 865 479 868 472 865

Z

M305 834

C300 833 294 830 294 829

C294 828 303 814 304 814

C304 814 306 815 309 816

C312 817 315 817 316 817

C321 816 326 810 326 807

C326 805 322 794 316 782

C304 752 296 735 296 734

L296 734

L306 734

C314 734 317 734 318 735

C318 736 323 746 328 759

L337 781

L338 780

C338 780 343 770 348 757

C357 735 357 735 367 734

L377 734

L377 735

C377 736 374 745 369 755

C365 764 359 780 355 790

C342 822 339 827 329 832

C325 834 322 834 315 835

C310 835 306 835 305 834

Z

M639 808

C635 806 629 804 626 803

C609 792 599 771 602 752

C606 731 622 715 644 710

C661 707 682 712 693 721

L697 725

L692 730

C690 732 686 735 685 736

L683 738

L676 734

C658 723 636 729 627 747

C623 754 623 765 627 773

C633 785 646 792 661 791

C665 790 670 789 672 788

C677 786 677 786 677 779

L677 771

L666 771

L656 771

L656 763

L656 755

L674 754

C684 754 694 754 695 754

L697 755

L697 776

C697 796 697 796 691 800

C677 809 654 812 639 808

Z

M744 809

C732 805 723 798 717 787

C714 780 714 780 713 745

L713 711

L724 711

L735 711

L735 741

C735 774 736 778 741 784

C746 788 750 790 757 790

C766 790 772 786 776 780

C777 777 778 772 778 744

L779 712

L789 712

L800 712

L799 746

C799 779 799 780 797 785

C793 796 786 803 774 807

C767 810 752 811 744 809

Z

M207 808

C206 808 206 786 206 759

L206 711

L232 711

C253 711 260 711 264 713

C277 716 285 722 289 733

C291 737 291 740 291 747

C290 762 284 770 271 776

C263 780 257 781 242 781

L229 781

L229 795

L229 809

L218 809

C212 809 207 809 207 808

Z

M256 762

C262 760 268 755 269 750

C271 741 266 733 257 730

C255 729 248 729 241 729

L229 729

L229 746

L229 763

L241 763

C247 763 254 763 256 762

Z

M411 808

C411 807 411 789 411 769

L411 731

L396 730

L381 730

L381 721

L381 712

L422 712

L464 712

L464 721

L464 730

L448 730

L433 730

L433 769

L433 809

L422 809

L411 809

L411 808

Z

M474 808

C474 807 474 785 474 759

L475 712

L485 712

L496 712

L496 733

L496 754

L497 754

C498 754 508 744 519 732

C539 711 539 711 552 711

L564 711

L564 712

C564 712 556 721 545 732

C535 743 526 753 526 753

L525 755

L543 778

C563 804 566 807 566 808

L566 809

L554 809

C540 809 543 811 523 787

C516 778 510 771 509 771

C509 771 506 774 502 777

C496 784 496 784 496 796

L496 809

L485 809

L475 809

L474 808

Z

M818 791

C817 781 817 759 817 742

L818 712

L828 712

L839 712

L839 760

L840 809

L829 809

L818 809

L818 791

Z

M401 665

C314 665 314 665 308 662

C301 659 295 653 291 648

C286 639 286 645 287 480

C287 327 287 327 290 320

C294 312 303 304 311 301

C317 299 317 299 395 298

L473 298

L473 298

C473 299 471 301 470 305

C468 308 466 311 465 312

L465 314

L393 314

C322 314 322 314 316 316

C311 319 307 324 304 329

C303 331 303 339 303 359

L303 386

L513 386

L722 386

L722 359

C722 331 722 331 719 326

C717 322 715 320 712 318

C707 315 707 315 620 314

L534 314

L540 309

C543 307 548 304 552 302

C558 298 558 298 633 298

C709 299 709 299 714 301

C722 304 730 312 734 320

C738 326 738 326 738 480

C739 609 738 634 737 639

C735 649 728 657 718 661

C712 665 712 665 684 665

C616 665 481 665 401 665

Z

M369 648

C369 647 369 634 369 618

C368 580 372 583 332 583

L303 584

L303 610

C303 635 303 636 305 639

C307 643 312 647 317 648

C318 648 331 649 344 649

L369 649

L369 648

Z

M640 633

L640 618

L513 618

L386 618

L385 632

C385 640 385 647 385 648

L386 649

L513 649

L640 649

L640 633

Z

M714 645

C717 644 719 641 721 638

C723 634 723 633 723 609

L723 584

L692 583

C662 583 662 583 659 586

C656 589 656 590 656 598

C656 603 656 616 655 627

C655 637 655 646 656 647

L656 649

L683 649

C710 649 710 649 714 645

Z

M334 568

L336 568

L336 485

L336 402

L320 402

L303 402

L303 485

L303 568

L313 568

C319 568 326 569 328 569

C331 569 334 569 334 568

Z

M722 485

L722 402

L706 402

L690 403

L689 484

C689 529 689 566 689 567

L690 568

L706 568

L722 568

L722 485

Z

M498 557

C499 555 499 552 499 542

C499 531 499 531 492 526

C488 524 479 519 472 516

C454 505 448 502 448 501

C448 500 452 497 457 494

C476 484 492 476 495 473

C499 471 499 471 499 460

C499 440 498 439 478 451

C469 455 450 466 434 475

C419 484 405 492 404 493

C402 495 403 506 405 509

C406 511 415 516 446 533

C482 553 493 559 494 559

C495 559 497 558 498 557

Z

M542 556

C546 554 554 550 561 546

C567 542 583 533 595 526

C624 510 624 510 625 503

C625 497 625 494 622 491

C619 489 606 481 569 460

C532 440 535 442 532 443

C530 445 530 445 530 458

C530 473 526 469 560 488

L581 500

L581 501

C580 503 579 504 550 520

C530 530 530 530 530 543

C530 553 530 556 532 557

C534 560 535 559 542 556

Z

M334 363

C333 362 330 360 329 358

C326 355 326 354 326 349

C327 344 327 342 329 340

C333 337 336 335 341 335

C349 335 354 340 356 348

C357 358 345 367 334 363

Z

M626 362

C618 358 616 350 620 343

C624 335 633 333 641 337

C646 340 648 344 648 349

C648 355 645 360 640 362

C634 365 631 364 626 362

Z

M676 362

C662 354 668 335 684 335

C688 335 689 336 692 338

C706 350 692 371 676 362

Z

M327 628

C323 625 320 618 321 613

C321 609 325 605 330 603

C343 597 356 613 347 624

C342 630 333 632 327 628

Z

M686 630

C670 624 672 604 688 602

C692 601 700 604 702 609

C705 613 705 620 702 624

C698 629 692 632 686 630

Z

"/>

<path fill="#ffffff" stroke="none" d="
M402 949

C391 947 385 942 381 933

C378 927 378 927 378 901

L378 876

L388 876

L398 876

L398 898

C399 917 399 920 401 923

C404 928 407 930 414 930

C419 930 420 930 423 928

C430 923 430 921 431 898

C431 886 431 876 431 876

L431 875

L441 875

L452 876

L452 912

L452 949

L444 949

C439 949 434 949 433 949

L431 948

L431 944

L431 941

L430 941

C430 941 429 942 428 943

C424 947 408 951 402 949

Z

M668 949

C657 947 650 944 643 936

C631 925 630 905 640 890

C646 881 656 875 670 874

C694 873 712 889 711 911

L711 917

L683 917

L655 918

L654 919

C654 919 656 922 659 925

C664 931 669 932 679 932

C684 931 687 930 691 929

C696 926 696 926 702 932

C704 934 706 936 706 937

C706 939 697 945 691 947

C683 949 675 950 668 949

Z

M691 905

L691 904

L689 899

C682 886 660 888 655 902

L654 904

L655 905

C657 906 690 906 691 905

Z

M277 948

C276 948 276 926 276 899

L276 851

L304 851

C335 851 342 852 350 857

C353 859 356 862 358 864

C360 868 360 869 360 876

C360 885 358 890 353 894

C351 896 350 897 350 898

C350 898 352 900 354 901

C357 902 360 905 361 908

C365 913 366 924 364 931

C361 938 354 943 346 946

C340 948 337 948 308 949

C291 949 277 949 277 948

Z

M336 929

C341 927 342 925 342 919

C342 916 341 914 339 912

C336 909 336 909 317 909

L299 909

L298 918

C298 924 298 929 298 930

L299 931

L315 931

C329 931 332 931 336 929

Z

M333 889

C340 885 341 876 334 871

C331 869 320 868 307 868

L299 869

L298 878

C298 884 298 889 298 890

L299 891

L315 891

C327 891 331 891 333 889

Z

M468 948

C468 947 468 931 468 911

L469 876

L479 876

L489 876

L489 912

L489 949

L479 949

L469 949

L468 948

Z

M507 948

C506 948 506 925 506 897

L506 847

L517 847

L527 847

L527 898

L527 949

L517 949

C512 949 507 949 507 948

Z

M564 947

C549 941 540 928 540 913

C540 901 543 893 549 885

C560 874 582 870 594 879

C596 881 598 882 598 882

L599 882

L599 864

L599 847

L610 847

L621 848

L621 898

L621 948

L620 949

C619 949 614 949 610 948

L602 948

L601 944

L601 941

L600 941

C599 941 597 942 595 944

C594 945 590 947 588 948

C583 950 569 949 564 947

Z

M591 928

C599 923 602 912 599 903

C596 895 586 890 578 891

C561 894 555 915 568 926

C570 928 573 930 574 930

C580 932 581 932 584 931

C585 931 588 930 591 928

Z

M724 948

C724 947 724 931 724 911

L725 876

L734 876

L744 876

L744 879

L744 883

L745 883

C746 883 748 882 750 880

C754 877 762 874 767 874

L770 874

L770 883

L770 893

L764 893

C757 894 754 896 751 899

C746 904 746 904 745 927

L745 949

L735 949

L725 949

L724 948

Z

M472 865

C468 863 465 858 465 854

C465 849 467 846 471 843

C478 840 487 843 490 851

C491 854 491 855 490 858

C487 865 479 868 472 865

Z

M305 834

C300 833 294 830 294 829

C294 828 303 814 304 814

C304 814 306 815 309 816

C312 817 315 817 316 817

C321 816 326 810 326 807

C326 805 322 794 316 782

C304 752 296 735 296 734

L296 734

L306 734

C314 734 317 734 318 735

C318 736 323 746 328 759

L337 781

L338 780

C338 780 343 770 348 757

C357 735 357 735 367 734

L377 734

L377 735

C377 736 374 745 369 755

C365 764 359 780 355 790

C342 822 339 827 329 832

C325 834 322 834 315 835

C310 835 306 835 305 834

Z

M639 808

C635 806 629 804 626 803

C609 792 599 771 602 752

C606 731 622 715 644 710

C661 707 682 712 693 721

L697 725

L692 730

C690 732 686 735 685 736

L683 738

L676 734

C658 723 636 729 627 747

C623 754 623 765 627 773

C633 785 646 792 661 791

C665 790 670 789 672 788

C677 786 677 786 677 779

L677 771

L666 771

L656 771

L656 763

L656 755

L674 754

C684 754 694 754 695 754

L697 755

L697 776

C697 796 697 796 691 800

C677 809 654 812 639 808

Z

M744 809

C732 805 723 798 717 787

C714 780 714 780 713 745

L713 711

L724 711

L735 711

L735 741

C735 774 736 778 741 784

C746 788 750 790 757 790

C766 790 772 786 776 780

C777 777 778 772 778 744

L779 712

L789 712

L800 712

L799 746

C799 779 799 780 797 785

C793 796 786 803 774 807

C767 810 752 811 744 809

Z

M207 808

C206 808 206 786 206 759

L206 711

L232 711

C253 711 260 711 264 713

C277 716 285 722 289 733

C291 737 291 740 291 747

C290 762 284 770 271 776

C263 780 257 781 242 781

L229 781

L229 795

L229 809

L218 809

C212 809 207 809 207 808

Z

M256 762

C262 760 268 755 269 750

C271 741 266 733 257 730

C255 729 248 729 241 729

L229 729

L229 746

L229 763

L241 763

C247 763 254 763 256 762

Z

M411 808

C411 807 411 789 411 769

L411 731

L396 730

L381 730

L381 721

L381 712

L422 712

L464 712

L464 721

L464 730

L448 730

L433 730

L433 769

L433 809

L422 809

L411 809

L411 808

Z

M474 808

C474 807 474 785 474 759

L475 712

L485 712

L496 712

L496 733

L496 754

L497 754

C498 754 508 744 519 732

C539 711 539 711 552 711

L564 711

L564 712

C564 712 556 721 545 732

C535 743 526 753 526 753

L525 755

L543 778

C563 804 566 807 566 808

L566 809

L554 809

C540 809 543 811 523 787

C516 778 510 771 509 771

C509 771 506 774 502 777

C496 784 496 784 496 796

L496 809

L485 809

L475 809

L474 808

Z

M818 791

C817 781 817 759 817 742

L818 712

L828 712

L839 712

L839 760

L840 809

L829 809

L818 809

L818 791

Z

M401 665

C314 665 314 665 308 662

C301 659 295 653 291 648

C286 639 286 645 287 480

C287 327 287 327 290 320

C294 312 303 304 311 301

C317 299 317 299 395 298

L473 298

L473 298

C473 299 471 301 470 305

C468 308 466 311 465 312

L465 314

L393 314

C322 314 322 314 316 316

C311 319 307 324 304 329

C303 331 303 339 303 359

L303 386

L513 386

L722 386

L722 359

C722 331 722 331 719 326

C717 322 715 320 712 318

C707 315 707 315 620 314

L534 314

L540 309

C543 307 548 304 552 302

C558 298 558 298 633 298

C709 299 709 299 714 301

C722 304 730 312 734 320

C738 326 738 326 738 480

C739 609 738 634 737 639

C735 649 728 657 718 661

C712 665 712 665 684 665

C616 665 481 665 401 665

Z

M369 648

C369 647 369 634 369 618

C368 580 372 583 332 583

L303 584

L303 610

C303 635 303 636 305 639

C307 643 312 647 317 648

C318 648 331 649 344 649

L369 649

L369 648

Z

M640 633

L640 618

L513 618

L386 618

L385 632

C385 640 385 647 385 648

L386 649

L513 649

L640 649

L640 633

Z

M714 645

C717 644 719 641 721 638

C723 634 723 633 723 609

L723 584

L692 583

C662 583 662 583 659 586

C656 589 656 590 656 598

C656 603 656 616 655 627

C655 637 655 646 656 647

L656 649

L683 649

C710 649 710 649 714 645

Z

M334 568

L336 568

L336 485

L336 402

L320 402

L303 402

L303 485

L303 568

L313 568

C319 568 326 569 328 569

C331 569 334 569 334 568

Z

M722 485

L722 402

L706 402

L690 403

L689 484

C689 529 689 566 689 567

L690 568

L706 568

L722 568

L722 485

Z

M498 557

C499 555 499 552 499 542

C499 531 499 531 492 526

C488 524 479 519 472 516

C454 505 448 502 448 501

C448 500 452 497 457 494

C476 484 492 476 495 473

C499 471 499 471 499 460

C499 440 498 439 478 451

C469 455 450 466 434 475

C419 484 405 492 404 493

C402 495 403 506 405 509

C406 511 415 516 446 533

C482 553 493 559 494 559

C495 559 497 558 498 557

Z

M542 556

C546 554 554 550 561 546

C567 542 583 533 595 526

C624 510 624 510 625 503

C625 497 625 494 622 491

C619 489 606 481 569 460

C532 440 535 442 532 443

C530 445 530 445 530 458

C530 473 526 469 560 488

L581 500

L581 501

C580 503 579 504 550 520

C530 530 530 530 530 543

C530 553 530 556 532 557

C534 560 535 559 542 556

Z

M334 363

C333 362 330 360 329 358

C326 355 326 354 326 349

C327 344 327 342 329 340

C333 337 336 335 341 335

C349 335 354 340 356 348

C357 358 345 367 334 363

Z

M626 362

C618 358 616 350 620 343

C624 335 633 333 641 337

C646 340 648 344 648 349

C648 355 645 360 640 362

C634 365 631 364 626 362

Z

M676 362

C662 354 668 335 684 335

C688 335 689 336 692 338

C706 350 692 371 676 362

Z

M327 628

C323 625 320 618 321 613

C321 609 325 605 330 603

C343 597 356 613 347 624

C342 630 333 632 327 628

Z

M686 630

C670 624 672 604 688 602

C692 601 700 604 702 609

C705 613 705 620 702 624

C698 629 692 632 686 630

Z

"/>

</svg>

